<?xml version="1.0" encoding="utf-8"?>
<!-- Generator: Adobe Illustrator 28.3.0, SVG Export Plug-In . SVG Version: 6.00 Build 0)  -->
<svg version="1.1" id="uuid-7287c7c0-f674-4a3d-b641-bc28991ed3ce"
	 xmlns="http://www.w3.org/2000/svg" xmlns:xlink="http://www.w3.org/1999/xlink" x="0px" y="0px" viewBox="0 0 3702.2 3120"
	 style="enable-background:new 0 0 3702.2 3120;" xml:space="preserve">
<style type="text/css">
	.st0{fill:#CC5FF7;}
	.st1{fill:#93539E;}
	.st2{fill:#DFA5F9;}
	.st3{fill:#8906CE;}
	.st4{fill:#B409D8;}
	.st5{fill:#FFFFFF;}
	.st6{fill:#E6F1FF;}
	.st7{fill-rule:evenodd;clip-rule:evenodd;fill:#8906CE;}
	.st8{fill:#F4AEA2;}
	.st9{fill:#D3D3D3;}
	.st10{fill:#F18A8B;}
	.st11{fill:#FACC88;}
	.st12{fill:#0D0D0D;}
	.st13{fill:#D1696E;}
	.st14{fill:#9DF9F2;}
	.st15{fill:#2E4EA4;}
	.st16{fill:#2B4A8E;}
	.st17{fill:#234175;}
	.st18{fill:#874A41;}
	.st19{fill:#723328;}
	.st20{fill:#F4A471;}
	.st21{fill:#5A80AF;}
	.st22{fill:#314A7C;}
	.st23{fill:#24395B;}
	.st24{fill:#213A63;}
	.st25{opacity:0.2;}
	.st26{fill:#122344;}
	.st27{fill:#1D2F59;}
	.st28{opacity:0.3;fill:#F0F0F0;}
	.st29{fill:#446EA0;}
	.st30{fill:#FAFAFA;}
	.st31{fill:#EDEDED;}
	.st32{fill:#6A9FD3;}
	.st33{fill:#101010;}
	.st34{fill:#96B9D6;}
	.st35{opacity:0.53;fill:#9BB0C4;}
	.st36{fill:#CAE4F9;}
	.st37{opacity:0.2;fill:#B9B9B9;}
	.st38{fill:#6FC183;}
	.st39{fill:#419786;}
	.st40{fill:#33776A;}
	.st41{fill:#7E7E7E;}
	.st42{fill:#35776A;}
	.st43{fill:#A5A5A5;}
	.st44{opacity:0.44;}
</style>
<g>
	<g>
		<g>
			<g>
				<g>
					<path class="st0" d="M2053.2,0h-56.9c-2.6,0-4.7,1.5-4.7,3.3c0,1.8,2.1,3.3,4.7,3.3h56.9c2.6,0,4.7-1.5,4.7-3.3
						C2057.9,1.5,2055.8,0,2053.2,0z"/>
					<path class="st0" d="M2053.1,817.1h-56.9c-2.6,0-4.7,1.5-4.7,3.3c0,1.8,2.1,3.3,4.7,3.3h56.9c2.6,0,4.7-1.5,4.7-3.3
						C2057.8,818.5,2055.7,817.1,2053.1,817.1z"/>
					<path class="st0" d="M2166.9,817.1H2110c-2.6,0-4.7,1.5-4.7,3.3c0,1.8,2.1,3.3,4.7,3.3h56.9c2.6,0,4.7-1.5,4.7-3.3
						C2171.6,818.5,2169.5,817.1,2166.9,817.1z"/>
					<path class="st0" d="M1939.4,0h-39.7c0,0,0,0,0,0c-6.4,0-12.6,0.8-18.5,2.4c-2.4,0.6-3.6,2.5-2.7,4.2c0.7,1.3,2.5,2.1,4.4,2.1
						c0.6,0,1.1-0.1,1.7-0.2c4.8-1.3,9.9-1.9,15.1-1.9c0,0,0,0,0,0h39.7c2.6,0,4.7-1.5,4.7-3.3C1944.1,1.5,1942,0,1939.4,0z"/>
					<path class="st0" d="M2508.2,817.1h-56.9c-2.6,0-4.7,1.5-4.7,3.3c0,1.8,2.1,3.3,4.7,3.3h56.9c2.6,0,4.7-1.5,4.7-3.3
						C2512.9,818.5,2510.8,817.1,2508.2,817.1z"/>
					<path class="st0" d="M2280.7,817.1h-56.9c-2.6,0-4.7,1.5-4.7,3.3c0,1.8,2.1,3.3,4.7,3.3h56.9c2.6,0,4.7-1.5,4.7-3.3
						C2285.4,818.5,2283.3,817.1,2280.7,817.1z"/>
					<path class="st0" d="M2394.5,0h-56.9c-2.6,0-4.7,1.5-4.7,3.3c0,1.8,2.1,3.3,4.7,3.3h56.9c2.6,0,4.7-1.5,4.7-3.3
						C2399.2,1.5,2397.1,0,2394.5,0z"/>
					<path class="st0" d="M2394.4,817.1h-56.9c-2.6,0-4.7,1.5-4.7,3.3c0,1.8,2.1,3.3,4.7,3.3h56.9c2.6,0,4.7-1.5,4.7-3.3
						C2399.1,818.5,2397,817.1,2394.4,817.1z"/>
					<path class="st0" d="M2167,0h-56.9c-2.6,0-4.7,1.5-4.7,3.3c0,1.8,2.1,3.3,4.7,3.3h56.9c2.6,0,4.7-1.5,4.7-3.3
						C2171.7,1.5,2169.6,0,2167,0z"/>
					<path class="st0" d="M2280.7,0h-56.9c-2.6,0-4.7,1.5-4.7,3.3c0,1.8,2.1,3.3,4.7,3.3h56.9c2.6,0,4.7-1.5,4.7-3.3
						C2285.4,1.5,2283.3,0,2280.7,0z"/>
					<path class="st0" d="M1939.3,817.1h-39.6c-5.2,0-10.4-0.7-15.2-2c-2.4-0.6-5.2,0.2-6.1,1.9c-0.9,1.7,0.3,3.6,2.7,4.2
						c5.9,1.6,12.2,2.4,18.6,2.4h39.6c2.6,0,4.7-1.5,4.7-3.3C1944,818.5,1941.9,817.1,1939.3,817.1z"/>
					<path class="st0" d="M1852.6,507.4c-2.6,0-4.7,1.5-4.7,3.3v39.5c0,1.8,2.1,3.3,4.7,3.3c2.6,0,4.7-1.5,4.7-3.3v-39.5
						C1857.3,508.8,1855.2,507.4,1852.6,507.4z"/>
					<path class="st0" d="M1852.6,32.8c-2.6,0-4.7,1.5-4.7,3.3v39.5c0,1.8,2.1,3.3,4.7,3.3c2.6,0,4.7-1.5,4.7-3.3V36.1
						C1857.3,34.3,1855.2,32.8,1852.6,32.8z"/>
					<path class="st0" d="M1852.6,428.3c-2.6,0-4.7,1.5-4.7,3.3v39.5c0,1.8,2.1,3.3,4.7,3.3c2.6,0,4.7-1.5,4.7-3.3v-39.5
						C1857.3,429.7,1855.2,428.3,1852.6,428.3z"/>
					<path class="st0" d="M1852.6,665.6c-2.6,0-4.7,1.5-4.7,3.3v39.5c0,1.8,2.1,3.3,4.7,3.3c2.6,0,4.7-1.5,4.7-3.3v-39.5
						C1857.3,667,1855.2,665.6,1852.6,665.6z"/>
					<path class="st0" d="M1852.6,744.7c-2.6,0-4.7,1.5-4.7,3.3v39.5c0,1.8,2.1,3.3,4.7,3.3c2.6,0,4.7-1.5,4.7-3.3v-39.5
						C1857.3,746.1,1855.2,744.7,1852.6,744.7z"/>
					<path class="st0" d="M1852.6,586.5c-2.6,0-4.7,1.5-4.7,3.3v39.5c0,1.8,2.1,3.3,4.7,3.3c2.6,0,4.7-1.5,4.7-3.3v-39.5
						C1857.3,587.9,1855.2,586.5,1852.6,586.5z"/>
					<path class="st0" d="M1852.6,191c-2.6,0-4.7,1.5-4.7,3.3v39.5c0,1.8,2.1,3.3,4.7,3.3c2.6,0,4.7-1.5,4.7-3.3v-39.5
						C1857.3,192.5,1855.2,191,1852.6,191z"/>
					<path class="st0" d="M1852.6,349.2c-2.6,0-4.7,1.5-4.7,3.3V392c0,1.8,2.1,3.3,4.7,3.3c2.6,0,4.7-1.5,4.7-3.3v-39.5
						C1857.3,350.6,1855.2,349.2,1852.6,349.2z"/>
					<path class="st0" d="M1852.6,111.9c-2.6,0-4.7,1.5-4.7,3.3v39.5c0,1.8,2.1,3.3,4.7,3.3c2.6,0,4.7-1.5,4.7-3.3v-39.5
						C1857.3,113.4,1855.2,111.9,1852.6,111.9z"/>
					<path class="st0" d="M1852.6,270.1c-2.6,0-4.7,1.5-4.7,3.3v39.6c0,1.8,2.1,3.3,4.7,3.3c2.6,0,4.7-1.5,4.7-3.3v-39.6
						C1857.3,271.6,1855.2,270.1,1852.6,270.1z"/>
					<path class="st0" d="M3164,784.3c-2.6,0-4.7,1.5-4.7,3.3c0,12.2-11,23.2-27.3,27.5c-2.4,0.6-3.7,2.5-2.7,4.2
						c0.7,1.3,2.5,2.1,4.4,2.1c0.6,0,1.1-0.1,1.7-0.2c20-5.3,33.4-18.8,33.4-33.7v-0.1C3168.7,785.7,3166.6,784.3,3164,784.3z"/>
					<path class="st0" d="M3164,388.7c-2.6,0-4.7,1.5-4.7,3.3v39.5c0,1.8,2.1,3.3,4.7,3.3c2.6,0,4.7-1.5,4.7-3.3V392
						C3168.7,390.2,3166.6,388.7,3164,388.7z"/>
					<path class="st0" d="M2508.3,0h-56.9c-2.6,0-4.7,1.5-4.7,3.3c0,1.8,2.1,3.3,4.7,3.3h56.9c2.6,0,4.7-1.5,4.7-3.3
						C2513,1.5,2510.9,0,2508.3,0z"/>
					<path class="st0" d="M3164,309.6c-2.6,0-4.7,1.5-4.7,3.3v39.5c0,1.8,2.1,3.3,4.7,3.3c2.6,0,4.7-1.5,4.7-3.3v-39.5
						C3168.7,311.1,3166.6,309.6,3164,309.6z"/>
					<path class="st0" d="M3164,546.9c-2.6,0-4.7,1.5-4.7,3.3v39.5c0,1.8,2.1,3.3,4.7,3.3c2.6,0,4.7-1.5,4.7-3.3v-39.5
						C3168.7,548.4,3166.6,546.9,3164,546.9z"/>
					<path class="st0" d="M3164,626c-2.6,0-4.7,1.5-4.7,3.3v39.5c0,1.8,2.1,3.3,4.7,3.3c2.6,0,4.7-1.5,4.7-3.3v-39.5
						C3168.7,627.5,3166.6,626,3164,626z"/>
					<path class="st0" d="M3164,230.5c-2.6,0-4.7,1.5-4.7,3.3v39.5c0,1.8,2.1,3.3,4.7,3.3c2.6,0,4.7-1.5,4.7-3.3v-39.5
						C3168.7,232,3166.6,230.5,3164,230.5z"/>
					<path class="st0" d="M3164,72.3c-2.6,0-4.7,1.5-4.7,3.3v39.5c0,1.8,2.1,3.3,4.7,3.3c2.6,0,4.7-1.5,4.7-3.3V75.6
						C3168.7,73.8,3166.6,72.3,3164,72.3z"/>
					<path class="st0" d="M3135.4,2.4c-2.4-0.6-5.1,0.2-6.1,1.9c-0.9,1.7,0.3,3.6,2.7,4.2c16.3,4.3,27.3,15.4,27.2,27.6
						c0,1.8,2.1,3.2,4.7,3.2c2.6,0,4.7-1.5,4.7-3.3C3168.7,21.2,3155.3,7.6,3135.4,2.4z"/>
					<path class="st0" d="M3164,151.4c-2.6,0-4.7,1.5-4.7,3.3v39.5c0,1.8,2.1,3.3,4.7,3.3c2.6,0,4.7-1.5,4.7-3.3v-39.5
						C3168.7,152.9,3166.6,151.4,3164,151.4z"/>
					<path class="st0" d="M3164,705.1c-2.6,0-4.7,1.5-4.7,3.3v39.5c0,1.8,2.1,3.3,4.7,3.3c2.6,0,4.7-1.5,4.7-3.3v-39.5
						C3168.7,706.6,3166.6,705.1,3164,705.1z"/>
					<path class="st0" d="M3164,467.8c-2.6,0-4.7,1.5-4.7,3.3v39.5c0,1.8,2.1,3.3,4.7,3.3c2.6,0,4.7-1.5,4.7-3.3v-39.5
						C3168.7,469.3,3166.6,467.8,3164,467.8z"/>
					<path class="st0" d="M2735.8,817.1h-56.9c-2.6,0-4.7,1.5-4.7,3.3c0,1.8,2.1,3.3,4.7,3.3h56.9c2.6,0,4.7-1.5,4.7-3.3
						C2740.5,818.5,2738.4,817.1,2735.8,817.1z"/>
					<path class="st0" d="M2735.8,0H2679c-2.6,0-4.7,1.5-4.7,3.3c0,1.8,2.1,3.3,4.7,3.3h56.9c2.6,0,4.7-1.5,4.7-3.3
						C2740.5,1.5,2738.4,0,2735.8,0z"/>
					<path class="st0" d="M2849.5,817.1h-56.9c-2.6,0-4.7,1.5-4.7,3.3c0,1.8,2.1,3.3,4.7,3.3h56.9c2.6,0,4.7-1.5,4.7-3.3
						C2854.2,818.5,2852.1,817.1,2849.5,817.1z"/>
					<path class="st0" d="M2622,817.1h-56.9c-2.6,0-4.7,1.5-4.7,3.3c0,1.8,2.1,3.3,4.7,3.3h56.9c2.6,0,4.7-1.5,4.7-3.3
						C2626.7,818.5,2624.6,817.1,2622,817.1z"/>
					<path class="st0" d="M2622.1,0h-56.9c-2.6,0-4.7,1.5-4.7,3.3c0,1.8,2.1,3.3,4.7,3.3h56.9c2.6,0,4.7-1.5,4.7-3.3
						C2626.8,1.5,2624.7,0,2622.1,0z"/>
					<path class="st0" d="M3077.1,817.1h-56.9c-2.6,0-4.7,1.5-4.7,3.3c0,1.8,2.1,3.3,4.7,3.3h56.9c2.6,0,4.7-1.5,4.7-3.3
						C3081.8,818.5,3079.7,817.1,3077.1,817.1z"/>
					<path class="st0" d="M3077.2,0h-56.9c-2.6,0-4.7,1.5-4.7,3.3c0,1.8,2.1,3.3,4.7,3.3h56.9c2.6,0,4.7-1.5,4.7-3.3
						C3081.9,1.5,3079.8,0,3077.2,0z"/>
					<path class="st0" d="M2963.4,0h-56.9c-2.6,0-4.7,1.5-4.7,3.3c0,1.8,2.1,3.3,4.7,3.3h56.9c2.6,0,4.7-1.5,4.7-3.3
						C2968.1,1.5,2966,0,2963.4,0z"/>
					<path class="st0" d="M2849.6,0h-56.9c-2.6,0-4.7,1.5-4.7,3.3c0,1.8,2.1,3.3,4.7,3.3h56.9c2.6,0,4.7-1.5,4.7-3.3
						C2854.3,1.5,2852.2,0,2849.6,0z"/>
					<path class="st0" d="M2963.3,817.1h-56.9c-2.6,0-4.7,1.5-4.7,3.3c0,1.8,2.1,3.3,4.7,3.3h56.9c2.6,0,4.7-1.5,4.7-3.3
						C2968,818.5,2965.9,817.1,2963.3,817.1z"/>
				</g>
				<g>
					<path class="st0" d="M666.9,635.5c-0.2-2.3-2.1-4-4.4-3.9c-18.2,1.2-32.5,18.3-32.5,38.9v0.1c0,2.3,1.9,4.1,4.2,4.1
						c2.3,0,4.2-1.9,4.2-4.2c0-16.3,10.9-29.7,24.7-30.6C665.3,639.7,667,637.8,666.9,635.5z"/>
					<path class="st0" d="M1064.1,635.7c0-2.3-1.9-4.2-4.2-4.2h-49.6c-2.3,0-4.2,1.9-4.2,4.2c0,2.3,1.9,4.2,4.2,4.2h49.6
						C1062.2,639.8,1064.1,638,1064.1,635.7z"/>
					<path class="st0" d="M1005.7,1501.2H956c-2.3,0-4.2,1.9-4.2,4.2c0,2.3,1.9,4.2,4.2,4.2h49.6c2.3,0,4.2-1.9,4.2-4.2
						C1009.8,1503.1,1008,1501.2,1005.7,1501.2z"/>
					<path class="st0" d="M707.8,1501.2h-43.3c-1.8,0-3.6-0.2-5.3-0.6c-2.2-0.5-4.5,0.8-5,3.1c-0.5,2.2,0.8,4.5,3.1,5
						c2.4,0.6,4.8,0.9,7.3,0.9h43.3c2.3,0,4.2-1.9,4.2-4.2C712,1503.1,710.1,1501.2,707.8,1501.2z"/>
					<path class="st0" d="M766.2,635.7c0-2.3-1.9-4.2-4.2-4.2h-49.6c-2.3,0-4.2,1.9-4.2,4.2c0,2.3,1.9,4.2,4.2,4.2H762
						C764.3,639.8,766.2,638,766.2,635.7z"/>
					<path class="st0" d="M964.8,635.7c0-2.3-1.9-4.2-4.2-4.2H911c-2.3,0-4.2,1.9-4.2,4.2c0,2.3,1.9,4.2,4.2,4.2h49.6
						C962.9,639.8,964.8,638,964.8,635.7z"/>
					<path class="st0" d="M906.4,1501.2h-49.6c-2.3,0-4.2,1.9-4.2,4.2c0,2.3,1.9,4.2,4.2,4.2h49.6c2.3,0,4.2-1.9,4.2-4.2
						C910.5,1503.1,908.7,1501.2,906.4,1501.2z"/>
					<path class="st0" d="M865.5,635.7c0-2.3-1.9-4.2-4.2-4.2h-49.6c-2.3,0-4.2,1.9-4.2,4.2c0,2.3,1.9,4.2,4.2,4.2h49.6
						C863.6,639.8,865.5,638,865.5,635.7z"/>
					<path class="st0" d="M807.1,1501.2h-49.6c-2.3,0-4.2,1.9-4.2,4.2c0,2.3,1.9,4.2,4.2,4.2h49.6c2.3,0,4.2-1.9,4.2-4.2
						C811.2,1503.1,809.4,1501.2,807.1,1501.2z"/>
					<path class="st0" d="M634.1,1213.2c-2.3,0-4.2,1.9-4.2,4.2v49.7c0,2.3,1.9,4.2,4.2,4.2c2.3,0,4.2-1.9,4.2-4.2v-49.7
						C638.3,1215,636.4,1213.2,634.1,1213.2z"/>
					<path class="st0" d="M634.1,1312.6c-2.3,0-4.2,1.9-4.2,4.2v49.7c0,2.3,1.9,4.2,4.2,4.2c2.3,0,4.2-1.9,4.2-4.2v-49.7
						C638.3,1314.4,636.4,1312.6,634.1,1312.6z"/>
					<path class="st0" d="M634.1,716.2c-2.3,0-4.2,1.9-4.2,4.2V770c0,2.3,1.9,4.2,4.2,4.2c2.3,0,4.2-1.9,4.2-4.2v-49.7
						C638.3,718,636.4,716.2,634.1,716.2z"/>
					<path class="st0" d="M634.1,1412c-2.3,0-4.2,1.9-4.2,4.2v49.7c0,2.3,1.9,4.2,4.2,4.2c2.3,0,4.2-1.9,4.2-4.2v-49.7
						C638.3,1413.8,636.4,1412,634.1,1412z"/>
					<path class="st0" d="M634.1,915c-2.3,0-4.2,1.9-4.2,4.2v49.7c0,2.3,1.9,4.2,4.2,4.2c2.3,0,4.2-1.9,4.2-4.2v-49.7
						C638.3,916.8,636.4,915,634.1,915z"/>
					<path class="st0" d="M634.1,1113.8c-2.3,0-4.2,1.9-4.2,4.2v49.7c0,2.3,1.9,4.2,4.2,4.2c2.3,0,4.2-1.9,4.2-4.2v-49.7
						C638.3,1115.6,636.4,1113.8,634.1,1113.8z"/>
					<path class="st0" d="M634.1,1014.4c-2.3,0-4.2,1.9-4.2,4.2v49.7c0,2.3,1.9,4.2,4.2,4.2c2.3,0,4.2-1.9,4.2-4.2v-49.7
						C638.3,1016.2,636.4,1014.4,634.1,1014.4z"/>
					<path class="st0" d="M634.1,815.6c-2.3,0-4.2,1.9-4.2,4.2v49.7c0,2.3,1.9,4.2,4.2,4.2c2.3,0,4.2-1.9,4.2-4.2v-49.7
						C638.3,817.4,636.4,815.6,634.1,815.6z"/>
					<path class="st0" d="M1481.3,1366.7c-2.3,0-4.2,1.9-4.2,4.2v49.7c0,2.3,1.9,4.2,4.2,4.2c2.3,0,4.2-1.9,4.2-4.2v-49.7
						C1485.4,1368.6,1483.6,1366.7,1481.3,1366.7z"/>
					<path class="st0" d="M1481.3,1068.5c-2.3,0-4.2,1.9-4.2,4.2v49.7c0,2.3,1.9,4.2,4.2,4.2c2.3,0,4.2-1.9,4.2-4.2v-49.7
						C1485.4,1070.4,1483.6,1068.5,1481.3,1068.5z"/>
					<path class="st0" d="M1481.3,969.1c-2.3,0-4.2,1.9-4.2,4.2v49.7c0,2.3,1.9,4.2,4.2,4.2c2.3,0,4.2-1.9,4.2-4.2v-49.7
						C1485.4,971,1483.6,969.1,1481.3,969.1z"/>
					<path class="st0" d="M1481.3,1267.3c-2.3,0-4.2,1.9-4.2,4.2v49.7c0,2.3,1.9,4.2,4.2,4.2c2.3,0,4.2-1.9,4.2-4.2v-49.7
						C1485.4,1269.2,1483.6,1267.3,1481.3,1267.3z"/>
					<path class="st0" d="M1481.3,1167.9c-2.3,0-4.2,1.9-4.2,4.2v49.7c0,2.3,1.9,4.2,4.2,4.2c2.3,0,4.2-1.9,4.2-4.2v-49.7
						C1485.4,1169.8,1483.6,1167.9,1481.3,1167.9z"/>
					<path class="st0" d="M1481.3,670.9c-2.3,0-4.2,1.9-4.2,4.2v49.7c0,2.3,1.9,4.2,4.2,4.2c2.3,0,4.2-1.9,4.2-4.2v-49.7
						C1485.4,672.8,1483.6,670.9,1481.3,670.9z"/>
					<path class="st0" d="M1481.3,770.3c-2.3,0-4.2,1.9-4.2,4.2v49.7c0,2.3,1.9,4.2,4.2,4.2c2.3,0,4.2-1.9,4.2-4.2v-49.7
						C1485.4,772.2,1483.6,770.3,1481.3,770.3z"/>
					<path class="st0" d="M1481.3,869.7c-2.3,0-4.2,1.9-4.2,4.2v49.7c0,2.3,1.9,4.2,4.2,4.2c2.3,0,4.2-1.9,4.2-4.2v-49.7
						C1485.4,871.6,1483.6,869.7,1481.3,869.7z"/>
					<path class="st0" d="M1362,635.7c0-2.3-1.9-4.2-4.2-4.2h-49.6c-2.3,0-4.2,1.9-4.2,4.2c0,2.3,1.9,4.2,4.2,4.2h49.6
						C1360.1,639.8,1362,638,1362,635.7z"/>
					<path class="st0" d="M1204.3,1501.2h-49.6c-2.3,0-4.2,1.9-4.2,4.2c0,2.3,1.9,4.2,4.2,4.2h49.6c2.3,0,4.2-1.9,4.2-4.2
						C1208.4,1503.1,1206.6,1501.2,1204.3,1501.2z"/>
					<path class="st0" d="M1262.7,635.7c0-2.3-1.9-4.2-4.2-4.2h-49.6c-2.3,0-4.2,1.9-4.2,4.2c0,2.3,1.9,4.2,4.2,4.2h49.6
						C1260.8,639.8,1262.7,638,1262.7,635.7z"/>
					<path class="st0" d="M1163.4,635.7c0-2.3-1.9-4.2-4.2-4.2h-49.6c-2.3,0-4.2,1.9-4.2,4.2c0,2.3,1.9,4.2,4.2,4.2h49.6
						C1161.5,639.8,1163.4,638,1163.4,635.7z"/>
					<path class="st0" d="M1303.6,1501.2h-49.6c-2.3,0-4.2,1.9-4.2,4.2c0,2.3,1.9,4.2,4.2,4.2h49.6c2.3,0,4.2-1.9,4.2-4.2
						C1307.7,1503.1,1305.9,1501.2,1303.6,1501.2z"/>
					<path class="st0" d="M1456.1,640.4c0.3,0.1,0.6,0.1,1,0.1c1.9,0,3.6-1.3,4-3.2c0.5-2.2-0.9-4.5-3.1-5c-2.3-0.5-4.7-0.8-7.1-0.8
						h-43.4c-2.3,0-4.2,1.9-4.2,4.2c0,2.3,1.9,4.2,4.2,4.2h43.4C1452.6,639.8,1454.4,640,1456.1,640.4z"/>
					<path class="st0" d="M1481.3,1466.3c-2.3,0-4.2,2-4.2,4.3c0,16.3-10.9,29.8-24.9,30.6c-2.3,0.1-4,2.1-3.9,4.4
						c0.1,2.2,2,3.9,4.1,3.9c0.1,0,0.2,0,0.3,0c18.3-1.1,32.7-18.2,32.7-38.9v-0.3C1485.4,1468,1483.6,1466.3,1481.3,1466.3z"/>
					<path class="st0" d="M1105,1501.2h-49.6c-2.3,0-4.2,1.9-4.2,4.2c0,2.3,1.9,4.2,4.2,4.2h49.6c2.3,0,4.2-1.9,4.2-4.2
						C1109.1,1503.1,1107.3,1501.2,1105,1501.2z"/>
					<path class="st0" d="M1402.8,1501.2h-49.6c-2.3,0-4.2,1.9-4.2,4.2c0,2.3,1.9,4.2,4.2,4.2h49.6c2.3,0,4.2-1.9,4.2-4.2
						C1407,1503.1,1405.1,1501.2,1402.8,1501.2z"/>
				</g>
			</g>
			<g>
				<g>
					<path class="st1" d="M2981.7,245.2H895.5c-17.3,0-31.3,14-31.3,31.3v1217.9c0,17.3,14,31.3,31.3,31.3h2086.2
						c17.3,0,31.3-14,31.3-31.3V276.5C3013,259.2,2999,245.2,2981.7,245.2z"/>
					<path class="st2" d="M2933.4,177.3H842.3c-15.9,0-28.8,12.9-28.8,28.8V1429c0,15.9,12.9,28.8,28.8,28.8h2091.2
						c15.9,0,28.8-12.9,28.8-28.8V206.1C2962.3,190.2,2949.4,177.3,2933.4,177.3z"/>
					<rect x="911.4" y="303.2" class="st1" width="756.5" height="270.9"/>
					<rect x="911.4" y="655.8" class="st0" width="1480.9" height="719.3"/>
					<g>
						<g>
							
								<rect x="2578.9" y="901.8" transform="matrix(2.913328e-03 -1 1 2.913328e-03 1544.7732 3645.2737)" class="st3" width="42.9" height="292.5"/>
							<polygon class="st4" points="2734,1026.9 2721.5,1048.3 2733.8,1069.8 2758.5,1069.9 2771,1048.5 2758.7,1027 							"/>
						</g>
						<g>
							<polygon class="st4" points="2453.8,1125.2 2706.9,1125.9 2707.1,1083 2454,1082.3 							"/>
							<polygon class="st5" points="2696.4,1083 2684,1104.4 2696.3,1125.9 2721,1126 2733.5,1104.6 2721.2,1083.1 							"/>
						</g>
						<g>
							<polygon class="st3" points="2453.6,1184 2664.1,1184.6 2664.3,1141.7 2453.8,1141.1 							"/>
							<polygon class="st4" points="2654.2,1141.6 2641.8,1163 2654.1,1184.5 2678.8,1184.6 2691.3,1163.2 2679,1141.7 							"/>
						</g>
					</g>
					<g>
						<g>
							<rect x="2520.6" y="692.2" class="st4" width="42.8" height="270.1"/>
							<rect x="2587.6" y="800.7" class="st1" width="42.8" height="161.6"/>
							<rect x="2453.6" y="739.3" class="st5" width="42.8" height="223"/>
							<rect x="2654.6" y="739.3" class="st4" width="42.8" height="223"/>
							<rect x="2721.6" y="687.8" class="st5" width="42.8" height="274.5"/>
						</g>
						<g>
							<path class="st0" d="M2870.7,609.9c-2.5-1.7-6-1.1-7.8,1.5l-119.1,174.2l-64.5-90c-1-1.4-2.7-2.3-4.4-2.3
								c-1.7,0-3.4,0.7-4.5,2.1l-59.8,75.8l-62.9-106.5c-1-1.6-2.7-2.7-4.6-2.8c-1.8-0.1-3.7,0.8-4.8,2.4l-74.7,106.7
								c-1.8,2.5-1.2,6,1.4,7.8c2.5,1.8,6,1.2,7.8-1.4l69.7-99.6l62.6,106.1c0.9,1.6,2.6,2.6,4.4,2.7c1.8,0.1,3.6-0.7,4.8-2.1
								l60.3-76.3l64.8,90.5c1.1,1.5,2.7,2.3,4.6,2.3c0,0,0,0,0.1,0c1.8,0,3.5-0.9,4.6-2.4l123.6-180.8
								C2873.9,615.2,2873.2,611.7,2870.7,609.9z"/>
						</g>
						<ellipse class="st0" cx="2475" cy="818.3" rx="10.1" ry="10.1"/>
						<path class="st0" d="M2609,808.1c-5.6,0-10.1,4.5-10.1,10.1c0,5.6,4.5,10.1,10.1,10.1c5.6,0,10.1-4.5,10.1-10.1
							C2619.1,812.7,2614.6,808.1,2609,808.1z"/>
						<ellipse class="st0" cx="2743" cy="817.9" rx="10.1" ry="10.1"/>
					</g>
					<g>
						<ellipse class="st4" cx="2649.8" cy="441.1" rx="168.5" ry="168.6"/>
						<path class="st5" d="M2649.8,272.4v167.8l168.5,0.8C2818.3,347.9,2742.9,272.4,2649.8,272.4z"/>
					</g>
					<rect x="2453.6" y="1237.8" class="st1" width="411.2" height="131.8"/>
					<path class="st5" d="M1620.7,346.5H961c-7.5,0-13.5,6-13.5,13.5v0c0,7.5,6,13.5,13.5,13.5h659.8c7.5,0,13.5-6,13.5-13.5v0
						C1634.2,352.6,1628.2,346.5,1620.7,346.5z"/>
					<path class="st5" d="M1380.2,399.7H959.7c-7.5,0-13.5,6-13.5,13.5v0c0,7.5,6,13.5,13.5,13.5h420.4c7.5,0,13.5-6,13.5-13.5v0
						C1393.6,405.8,1387.6,399.7,1380.2,399.7z"/>
					<path class="st5" d="M1277.1,455.6H963c-7.5,0-13.5,6-13.5,13.5v0c0,7.5,6,13.5,13.5,13.5h314.1c7.5,0,13.5-6,13.5-13.5v0
						C1290.6,461.7,1284.5,455.6,1277.1,455.6z"/>
					<path class="st5" d="M1273.5,513.2H961.4c-7.5,0-13.5,6-13.5,13.5v0c0,7.5,6,13.5,13.5,13.5h312.2c7.5,0,13.5-6,13.5-13.5v0
						C1287,519.2,1281,513.2,1273.5,513.2z"/>
				</g>
				<g>
					<g>
						<rect x="1049.2" y="722.7" class="st6" width="153.3" height="18.1"/>
						<path class="st6" d="M1555.6,722.7h-295.6c-5,0-9.1,4.1-9.1,9.1v0c0,5,4.1,9.1,9.1,9.1h295.6c5,0,9.1-4.1,9.1-9.1v0
							C1564.7,726.7,1560.6,722.7,1555.6,722.7z"/>
						<path class="st5" d="M1258.5,796.1h-135.2c-5,0-9.1,4.1-9.1,9.1v0c0,5,4.1,9.1,9.1,9.1h135.2c5,0,9.1-4.1,9.1-9.1v0
							C1267.5,800.1,1263.5,796.1,1258.5,796.1z"/>
						<rect x="1114.3" y="864.2" class="st5" width="153.3" height="18.1"/>
						<path class="st5" d="M1258.5,932.3h-135.2c-5,0-9.1,4.1-9.1,9.1v0c0,5,4.1,9.1,9.1,9.1h135.2c5,0,9.1-4.1,9.1-9.1v0
							C1267.5,936.3,1263.5,932.3,1258.5,932.3z"/>
						<path class="st5" d="M1258.5,1000.4h-135.2c-5,0-9.1,4.1-9.1,9.1v0c0,5,4.1,9.1,9.1,9.1h135.2c5,0,9.1-4.1,9.1-9.1v0
							C1267.5,1004.5,1263.5,1000.4,1258.5,1000.4z"/>
						<path class="st6" d="M1193.4,1072.5h-135.2c-5,0-9.1,4.1-9.1,9.1v0c0,5,4.1,9.1,9.1,9.1h135.2c5,0,9.1-4.1,9.1-9.1v0
							C1202.5,1076.5,1198.4,1072.5,1193.4,1072.5z"/>
						<path class="st6" d="M1555.6,1072.5h-295.6c-5,0-9.1,4.1-9.1,9.1v0c0,5,4.1,9.1,9.1,9.1h295.6c5,0,9.1-4.1,9.1-9.1v0
							C1564.7,1076.5,1560.6,1072.5,1555.6,1072.5z"/>
						<path class="st5" d="M2209.7,1145.8h-265.1c-5,0-9.1,4.1-9.1,9.1v0c0,5,4.1,9.1,9.1,9.1h265.1c5,0,9.1-4.1,9.1-9.1v0
							C2218.8,1149.9,2214.7,1145.8,2209.7,1145.8z"/>
						<rect x="1935.6" y="1214" class="st5" width="283.2" height="18.1"/>
						<rect x="1935.6" y="1282.1" class="st5" width="283.2" height="18.1"/>
					</g>
					<path class="st3" d="M1504.3,794.6h-146.5c-6.3,0-11.4,5.1-11.4,11.4v0.5c0,6.3,5.1,11.4,11.4,11.4h146.5
						c6.3,0,11.4-5.1,11.4-11.4V806C1515.7,799.7,1510.6,794.6,1504.3,794.6z"/>
					<path class="st5" d="M1803.1,794.6h-151.2c-5,0-9.1,4.1-9.1,9.1v5.2c0,5,4.1,9.1,9.1,9.1h151.2c5,0,9.1-4.1,9.1-9.1v-5.2
						C1812.1,798.6,1808.1,794.6,1803.1,794.6z"/>
					<path class="st3" d="M1643.8,858.9h-289.2c-6.3,0-11.4,5.1-11.4,11.4v0.5c0,6.3,5.1,11.4,11.4,11.4h289.2
						c6.3,0,11.4-5.1,11.4-11.4v-0.5C1655.2,864,1650.1,858.9,1643.8,858.9z"/>
					<path class="st3" d="M1989.3,862.3h-289.2c-6.3,0-11.4,5.1-11.4,11.4v0.5c0,6.3,5.1,11.4,11.4,11.4h289.2
						c6.3,0,11.4-5.1,11.4-11.4v-0.5C2000.7,867.4,1995.6,862.3,1989.3,862.3z"/>
					<path class="st3" d="M2177.7,930h-289.2c-6.3,0-11.4,5.1-11.4,11.4v0.5c0,6.3,5.1,11.4,11.4,11.4h289.2
						c6.3,0,11.4-5.1,11.4-11.4v-0.5C2189.1,935.1,2184,930,2177.7,930z"/>
					<path class="st5" d="M1607.9,997.6h-281.5c-5,0-9.1,4.1-9.1,9.1v5.2c0,5,4.1,9.1,9.1,9.1h281.5c5,0,9.1-4.1,9.1-9.1v-5.2
						C1617,1001.7,1612.9,997.6,1607.9,997.6z"/>
					<path class="st3" d="M1800.1,930h-452.7c-6.3,0-11.4,5.1-11.4,11.4v0.5c0,6.3,5.1,11.4,11.4,11.4h452.7
						c6.3,0,11.4-5.1,11.4-11.4v-0.5C1811.5,935.1,1806.3,930,1800.1,930z"/>
					<path class="st1" d="M2207.6,997.6h-452.1c-6.4,0-11.7,5.2-11.7,11.7v0c0,6.5,5.2,11.7,11.7,11.7h452.1
						c6.4,0,11.7-5.2,11.7-11.7v0C2219.2,1002.9,2214,997.6,2207.6,997.6z"/>
					<path class="st1" d="M1604.3,794.6h-58.7c-5,0-9.1,4.1-9.1,9.1v5.2c0,5,4.1,9.1,9.1,9.1h58.7c5,0,9.1-4.1,9.1-9.1v-5.2
						C1613.3,798.6,1609.3,794.6,1604.3,794.6z"/>
					<path class="st5" d="M1906.4,794.6h-58.7c-5,0-9.1,4.1-9.1,9.1v5.2c0,5,4.1,9.1,9.1,9.1h58.7c5,0,9.1-4.1,9.1-9.1v-5.2
						C1915.5,798.6,1911.4,794.6,1906.4,794.6z"/>
					<path class="st5" d="M2010.9,794.6h-58.7c-5,0-9.1,4.1-9.1,9.1v5.2c0,5,4.1,9.1,9.1,9.1h58.7c5,0,9.1-4.1,9.1-9.1v-5.2
						C2019.9,798.6,2015.9,794.6,2010.9,794.6z"/>
					<path class="st3" d="M2085.3,862.3h-54c-6.3,0-11.4,5.1-11.4,11.4v0.5c0,6.3,5.1,11.4,11.4,11.4h54c6.3,0,11.4-5.1,11.4-11.4
						v-0.5C2096.7,867.4,2091.6,862.3,2085.3,862.3z"/>
					<path class="st1" d="M2274.7,930h-53.5c-6.4,0-11.7,5.2-11.7,11.7c0,6.5,5.2,11.7,11.7,11.7h53.5c6.4,0,11.7-5.2,11.7-11.7
						C2286.3,935.2,2281.1,930,2274.7,930z"/>
					<path class="st3" d="M1708.3,997.6h-54c-6.3,0-11.4,5.1-11.4,11.4v0.5c0,6.3,5.1,11.4,11.4,11.4h54c6.3,0,11.4-5.1,11.4-11.4
						v-0.5C1719.7,1002.8,1714.6,997.6,1708.3,997.6z"/>
					<path class="st3" d="M2182.5,862.3h-54c-6.3,0-11.4,5.1-11.4,11.4v0.5c0,6.3,5.1,11.4,11.4,11.4h54c6.3,0,11.4-5.1,11.4-11.4
						v-0.5C2193.9,867.4,2188.8,862.3,2182.5,862.3z"/>
					<g>
						<rect x="1583.7" y="1143" class="st1" width="294.2" height="22.8"/>
						<path class="st3" d="M1556.4,1143H1285c-6.3,0-11.4,5.1-11.4,11.4s5.1,11.4,11.4,11.4h271.3c6.3,0,11.4-5.1,11.4-11.4
							S1562.7,1143,1556.4,1143z"/>
						<path class="st3" d="M1378.7,1209.1h-271.3c-6.3,0-11.4,5.1-11.4,11.4c0,6.3,5.1,11.4,11.4,11.4h271.3
							c6.3,0,11.4-5.1,11.4-11.4C1390.1,1214.3,1385,1209.1,1378.7,1209.1z"/>
						<path class="st3" d="M1867.6,1275.3h-220.8c-6.3,0-11.4,5.1-11.4,11.4v0c0,6.3,5.1,11.4,11.4,11.4h220.8
							c6.3,0,11.4-5.1,11.4-11.4v0C1879,1280.4,1873.9,1275.3,1867.6,1275.3z"/>
						<path class="st3" d="M1866.5,1210.3h-425.4c-6.3,0-11.4,5.1-11.4,11.4v0c0,6.3,5.1,11.4,11.4,11.4h425.4
							c6.3,0,11.4-5.1,11.4-11.4v0C1877.9,1215.4,1872.8,1210.3,1866.5,1210.3z"/>
						<rect x="1067.6" y="1275.3" class="st1" width="448.2" height="22.8"/>
						<path class="st3" d="M1244.1,1143h-49.6c-6.3,0-11.4,5.1-11.4,11.4s5.1,11.4,11.4,11.4h49.6c6.3,0,11.4-5.1,11.4-11.4
							S1250.4,1143,1244.1,1143z"/>
						<rect x="1004.3" y="1209.1" class="st0" width="72.4" height="22.8"/>
						<rect x="1538.6" y="1275.3" class="st5" width="72.4" height="22.8"/>
						<rect x="1091.5" y="1143" class="st0" width="72.4" height="22.8"/>
					</g>
					<g>
						<polygon class="st5" points="983.5,804.9 1017.1,820 1017.1,815.7 988.8,803.2 988.8,803.1 1017.1,790.7 1017.1,786.3 
							983.5,801.5 						"/>
						<polygon class="st5" points="1021.9,822.6 1026.7,822.6 1047,776.6 1042.1,776.6 						"/>
						<polygon class="st5" points="1051.6,790.7 1080.2,803.1 1080.2,803.2 1051.6,815.7 1051.6,820 1085.3,804.9 1085.3,801.4 
							1051.6,786.3 						"/>
					</g>
				</g>
			</g>
			<path class="st7" d="M631.9,1266.8L616,1261c-6.7-2.4-11-9-10.4-16.2c1-13.8,0.3-27.6-2-40.9c-1.2-7.1,2.4-14.1,8.8-17.2
				l15.3-7.3c7.9-3.8,11.3-13.4,7.6-21.5l-13.9-29.7c-3.7-8.1-13.2-11.5-21.1-7.7l-15.3,7.3c-6.4,3.1-14.1,1.5-18.7-4
				c-8.7-10.3-18.7-19.5-29.9-27.5c-5.8-4.1-8.1-11.7-5.7-18.5l5.7-16.2c2.9-8.4-1.4-17.6-9.6-20.6l-30.5-11.1
				c-8.3-3-17.3,1.4-20.3,9.8l-5.7,16.2c-2.4,6.8-8.9,11.2-15.9,10.6c-13.6-1-27.1-0.3-40.3,2c-7,1.2-13.9-2.5-16.9-9l-7.2-15.5
				c-3.7-8.1-13.2-11.5-21.1-7.7l-29.3,14.1c-7.9,3.8-11.3,13.4-7.5,21.5l7.2,15.5c3,6.5,1.5,14.3-3.9,19
				c-10.1,8.9-19.2,19-27.1,30.4c-4,5.9-11.5,8.2-18.2,5.8l-15.9-5.8c-8.3-3-17.3,1.4-20.3,9.7l-10.9,31c-3,8.4,1.3,17.6,9.6,20.6
				l15.9,5.8c6.7,2.4,11,9,10.4,16.2c-1,13.8-0.3,27.6,2,40.9c1.2,7.1-2.4,14.1-8.8,17.2l-15.3,7.4c-7.9,3.8-11.3,13.4-7.6,21.5
				l13.8,29.7c3.8,8,13.2,11.5,21.2,7.7l15.3-7.4c6.4-3.1,14.1-1.5,18.7,4c8.7,10.3,18.7,19.5,29.9,27.5c5.8,4.2,8.1,11.7,5.7,18.5
				l-5.7,16.1c-2.9,8.4,1.4,17.6,9.6,20.6l30.5,11.1c8.3,3,17.4-1.4,20.3-9.8l5.7-16.2c2.4-6.8,8.9-11.2,16-10.6
				c13.6,1,27.1,0.3,40.3-2c7-1.3,13.9,2.5,16.9,9l7.2,15.5c3.8,8,13.2,11.5,21.2,7.7l29.2-14.1c7.9-3.8,11.3-13.4,7.6-21.5
				l-7.2-15.5c-3-6.5-1.5-14.3,3.9-19c10.1-8.9,19.2-19,27.1-30.4c4.1-5.9,11.5-8.2,18.2-5.8l15.9,5.8c8.3,3,17.3-1.4,20.3-9.8
				l10.9-31C644.5,1279,640.2,1269.8,631.9,1266.8z M528.8,1247.9c-11,60.9-76.5,92.4-129.8,62.4c-32.3-18.2-50.1-56.3-43.4-93.2
				c11-60.9,76.5-92.4,129.8-62.4C517.7,1172.8,535.5,1211,528.8,1247.9z"/>
			<g>
				<g>
					<g>
						<g>
							<g>
								<g>
									<path class="st8" d="M1784.3,1072.1c-2.5-8.2-12.7-8-24.6-4.6c14.2-8.6,25.3-18.5,21.2-26.8c-6.2-12.8-33.4-1.2-52.1,8.7
										c17.7-11.1,40.9-28.1,34.1-37.4c-11.9-16.2-79.4,31.4-93.5,44.9c-9.4,9-21.2,34.9-29.9,48.5c-9.4,14.7-17.3,27.7-23.8,39.3
										c-6.5,11.6-11.7,21.7-15.6,30.6c12,21,28.1,43.9,47.8,61.3c6.5-4,14.5-7.7,23.4-14.7c12.3-9.7,26.3-25.6,40.3-56.9
										c18.6-41.3,77.4-44.1,70.8-62.9c-2.7-7.8-15.7-5.1-28.9,0.2C1770.2,1092.8,1786.9,1080.7,1784.3,1072.1z"/>
									<path class="st9" d="M1753.4,1102.4c-15.7,6.2-31.8,16-31.8,16S1737.5,1111.5,1753.4,1102.4z"/>
									<path class="st9" d="M1728.8,1049.5c-10,5.3-17.6,10.2-18.3,10.7C1711.3,1059.7,1719.2,1055.4,1728.8,1049.5z"/>
									<path class="st9" d="M1759.7,1067.5c-20.3,5.9-45.5,21.5-45.5,21.5S1739.9,1079.5,1759.7,1067.5z"/>
									<g>
										<path class="st10" d="M1709.9,1058.3c-7.4,4.3-14.4,9.3-21.4,14.1c-0.2,0.1,0,0.4,0.2,0.3c7.4-4.2,15-8.1,22.3-12.4
											c7.4-4.3,34.1-19.1,53-24.8c0.8-0.2-12.5,2.2-31.5,10.9C1724.8,1050.1,1717.2,1054,1709.9,1058.3z"/>
										<path class="st10" d="M1759.4,1067.4c-19,6-47.9,23.3-56,32c-0.1,0.1,0,0.3,0.1,0.2c9.2-5.6,46.3-26.5,55.9-31.7
											C1760.1,1067.6,1760.2,1067.2,1759.4,1067.4z"/>
										<path class="st10" d="M1756,1101.4c-17.4,5.7-32.6,13.6-44.1,23.5c-0.3,0.2,0.1,0.6,0.3,0.5c17.2-9.9,28.8-15.7,43.6-23.2
											C1756.7,1101.7,1756.8,1101.1,1756,1101.4z"/>
									</g>
								</g>
								<path class="st10" d="M1615.6,1144.8c-6.5,11.6-11.7,21.7-15.6,30.6c12,21,28.1,43.9,47.8,61.3c6.5-4,14.5-7.7,23.4-14.7
									l0,0C1639.6,1208.7,1615.6,1144.8,1615.6,1144.8z"/>
								<path class="st8" d="M1656.4,1038.3c-12.4-11.5-21-1.1-17.7,11.8c3.7,14.3-17.8,84.4-17.8,85.4c16.1-19.9,40-70.5,48.4-78.6
									C1669.3,1057,1668.8,1049.8,1656.4,1038.3z"/>
							</g>
						</g>
					</g>
				</g>
			</g>
			<g>
				<g>
					<g>
						<path class="st0" d="M3324.5,510h-455.6c-11.9,0-21.5,9.6-21.5,21.5v279.7c0,11.9,9.6,21.5,21.5,21.5h455.6
							c11.9,0,21.5-9.6,21.5-21.5V531.6C3346.1,519.7,3336.4,510,3324.5,510z"/>
					</g>
					<g>
						<path class="st4" d="M3324.5,510h-455.6c-11.9,0-21.5,9.6-21.5,21.5v22.3h498.7v-22.3C3346.1,519.7,3336.4,510,3324.5,510z"/>
						<g>
							
								<ellipse transform="matrix(1.684344e-03 -1 1 1.684344e-03 2396.7656 3464.6958)" class="st11" cx="2933.7" cy="531.9" rx="12.3" ry="12.3"/>
							<ellipse class="st11" cx="2901.6" cy="531.9" rx="12.3" ry="12.3"/>
							<path class="st11" d="M2868.8,519.7c-6.8,0-12.3,5.5-12.3,12.3c0,6.8,5.5,12.3,12.3,12.3c6.8,0,12.3-5.5,12.3-12.3
								C2881.1,525.2,2875.6,519.7,2868.8,519.7z"/>
						</g>
					</g>
				</g>
			</g>
			<path class="st12" d="M1120.9,713.4c0,0-67.9-55.8-164.1,22c-52.2,42.2-85.6,133.3-65,190.6l1.7,5.3c0,0,1.4,5.7,1.4,5.7
				c1.1,2.9,3.6,10.3,4.9,13.1c6,17.2,41.3,87.8,82.7,94.8l99.3,8.7c45.5-70.7,132.3-131.1,132.3-131.1
				C1299.7,824.5,1220.6,679.9,1120.9,713.4z"/>
			<path class="st8" d="M966.5,1045c-17.2,36.5,3.3,79.7,42,88.8c33.5,7.9,66.9-13.3,74.7-47.3l29.8-130l-109.7-42.2L966.5,1045z"/>
			<polygon class="st10" points="1083.2,1086.6 1091.8,1049.4 1019.3,996.4 			"/>
			<path class="st8" d="M1188.6,799.2l-140.6,6.7l-38.1,166c-2.1,9.3,1.5,19,9,24.5c0,0,46.7,69.4,98.3,58.3l52.7-21.7
				c7-2.9,12.1-9,13.8-16.4l32.3-140.9C1222.7,846.9,1211.9,816.9,1188.6,799.2z"/>
			<polygon class="st8" points="1189.6,974.4 1219.2,971.4 1210.9,898 			"/>
			<path d="M1161.6,860.7c-0.4,9.3,32.6,10.4,35,0.7C1200.5,846.1,1162.3,845.4,1161.6,860.7z"/>
			<path class="st10" d="M1130.4,908.6c-23.6-8.9-48.9,7.1-51.5,32.6c-1.8,17.4,8.5,34.1,24.6,40.2c23.6,8.9,48.9-7.1,51.5-32.6
				C1156.8,931.4,1146.5,914.6,1130.4,908.6z"/>
			<path d="M1183.3,889.4c-3.8-1-8.3,3.6-10,10.3c-1.7,6.7,0,12.9,3.9,13.9c3.8,1,8.3-3.6,10-10.3
				C1188.9,896.7,1187.1,890.4,1183.3,889.4z"/>
			<path class="st12" d="M1037.3,736.9l-12,149.4c0,0,139.5,2.8,169-103.6l-3-30.1L1037.3,736.9z"/>
			<g>
				<path class="st12" d="M898.6,667.5c-36.4,2.1-64.2,34.9-62,73.3c2.1,38.4,33.3,67.8,69.7,65.7c36.4-2.1,64.2-34.9,62.1-73.3
					C966.2,694.8,935,665.4,898.6,667.5z"/>
				<path class="st12" d="M857.8,814.2c-25.6-18.1-8.3-94.9-8.1-95.7l-3.4-0.8c-0.8,3.3-18.1,80,9.5,99.4c4.6,3.3,10.2,4.7,16.7,4.3
					c11-0.6,24.8-6.5,41-17.5l-1.9-3C887,817.6,868.9,822.1,857.8,814.2z"/>
			</g>
			
				<rect x="1169.6" y="987.6" transform="matrix(0.2588 -0.9659 0.9659 0.2588 -98.5512 1872.9404)" class="st13" width="3.1" height="26.1"/>
			<g>
				<g>
					<g>
						<path d="M1432.7,1825.3c-206.8-44.7-520.5,35.3-520.5,35.3s-10.2-31.6-29.4-105.3c-75.3-9.6-92.4-31.3-193.3-77
							c-42,57.8-185.8,277.3-166.2,420.2c8.8,64.3,56.4,134.8,120.8,149.9c250.6,59,554.7-122.5,554.7-122.5
							c86.8-50.7,240.1-198.7,254-215.8C1500.3,1840.6,1431.3,1827.5,1432.7,1825.3z"/>
					</g>
				</g>
				<path class="st14" d="M1110.9,1098.3c-5.4-0.1-63.1,213.2-19,280.8c29.3,44.8,94.6,97.6,128.5,128.6
					c83.5,76.2,162,96.1,196,92.7c64.4-6.4,52.8-40.3,66.4-78.4c18.4-51.5-55.6-111.5-117.9-199.4
					C1324,1264.7,1231.9,1099.6,1110.9,1098.3z"/>
				
					<rect x="1602.1" y="1156.7" transform="matrix(0.6208 -0.7839 0.7839 0.6208 -334.9182 1733.8987)" class="st14" width="45.9" height="113.1"/>
				<path class="st14" d="M1552.7,1191.4c-83.6,29.1-151.2,227.5-170.7,306.2c-12.1,48.6-35.1,102.7,29.6,103.1
					c50.8,0.3,102-14.6,173.1-109.1c72.6-96.6,126.6-143.9,103.8-209.5C1681.9,1263.2,1576.4,1183.2,1552.7,1191.4z"/>
				<g>
					<g>
						<path class="st15" d="M1545.2,1622.3c-93.9-4.9-173.3,42.9-236.7,106.3c32.1,29.4,168,144.2,168,144.2s74,187.7,143.3,246.6
							c124.1,105.4,380.9,323.4,380.9,323.4l125.9-155.8c0,0-105.8-130.3-270.6-343.6C1731.5,1782.2,1607.9,1625.6,1545.2,1622.3z"
							/>
					</g>
				</g>
				<g>
					<g>
						<path class="st16" d="M1719.9,1938.7c-73.5-109.6-122.3-129.7-211.9-128.4c7.5,50.1,32.7,201.1-4.1,268.6
							c0,0-27.6,128.7-24.1,185.5c9,145.8,95.6,547.4,95.6,547.4l213.9-11.5c0,0-13.5-116.5-19.3-414.7
							C1765.9,2182,1754.9,1990.9,1719.9,1938.7z"/>
					</g>
				</g>
				<path class="st17" d="M1555.3,1810.5c-111.7-18.7-529.2,129.1-529.2,129.1s-74.1,250.7-43.4,287.3
					c30.1,35.8,511.5-92.4,532.9-99.8C1528.5,2101.2,1661.7,1828.4,1555.3,1810.5z"/>
				<path class="st17" d="M1516.4,2126.8c0,0-0.3,0.2-0.7,0.3c-0.6,1.3-1,2-1,2L1516.4,2126.8z"/>
				<g>
					<g>
						<path class="st15" d="M1021.8,1825.3c0,0-21.4-25.4-67.1-86.3c-79.6-4.8-106.5-10.5-217.2-14.5c-17,69.4-82.1,330.4,3.2,461.3
							c49.1,75.3,130.8,78.6,177.1,78.7c256.4,0.7,431.7-212.6,534.6-326.8c43.3-48,108.4-119.6,114.8-140.7
							c17.7-82.3-53.9-172-53.4-174.6C1305.4,1659.5,1021.8,1825.3,1021.8,1825.3z"/>
					</g>
				</g>
				<path class="st14" d="M1218.4,1138.8c-55.6-36-118.1-40.5-186.4-58.1c-130.5-33.6-157.1,22.9-157.1,22.9l-305.8,577.9
					c0,0,47,73.1,175,113.6c89.7,28.4,277.5,30.2,277.5,30.2l83.2-45.4l59.6-375.3C1200.5,1331.5,1287.2,1183.4,1218.4,1138.8z"/>
				<g>
					<path class="st18" d="M274.1,3084.2c-0.4,2.8,1.2,4.5,2.9,4.8c0.6,0.1,4,0.5,4,0.5s-0.4-2.1-0.1-3.6l174.5-794l-57.8-5.2
						C397.6,2286.7,311.6,2839.7,274.1,3084.2z"/>
					<path class="st19" d="M277.5,3084.5c-1,5.2,5.5,7.1,6.7,2l202.1-785.4l-57.8-5.2C428.6,2295.9,323.8,2841.5,277.5,3084.5z"/>
					<path class="st18" d="M788.4,2241.7l-57.8-5.2c0,0-86,553-123.5,797.5c-0.4,2.8,1.2,4.5,2.9,4.8c0.6,0.1,4,0.5,4,0.5
						s-0.4-2.1-0.1-3.6L788.4,2241.7z"/>
					<path class="st19" d="M610.5,3034.2c-1,5.2,5.5,7.1,6.7,2l202.1-785.4l-57.8-5.2C761.6,2245.7,656.9,2791.2,610.5,3034.2z"/>
					<path class="st18" d="M916.4,2297.7l-65.4,2.8c0,0,198.8,559.5,280.7,788.2c0.9,2.6,3.1,3,4.7,2.1c0.5-0.3,3.5-2.2,3.5-2.2
						s-1.3-1.4-1.8-2.9L916.4,2297.7z"/>
					<path class="st19" d="M948.9,2300.5l-64.4-7.3c0,0,176.4,562.1,250.2,795.3c1.6,5,7.8,2.4,6.6-2.7L948.9,2300.5z"/>
					<path class="st18" d="M1280.6,2227.6l-65.3-3.6c0,0,143.7,576.7,202.9,812.4c0.7,2.7,2.8,3.3,4.4,2.5c0.6-0.3,3.7-1.9,3.7-1.9
						s-1.2-1.5-1.5-3.1L1280.6,2227.6z"/>
					<path class="st19" d="M1312.7,2233.3l-63.4-13.5c0,0,121.1,577.2,171.9,816.5c1.1,5.1,7.6,3.1,6.8-2.1L1312.7,2233.3z"/>
					<path class="st18" d="M354.1,2307.4c0,3.4,2.8,6.2,6.2,6.2H1356c3.4,0,6.2-2.8,6.2-6.2v-44.1H354.1V2307.4z"/>
					<path class="st11" d="M1263.5,2078.4c-155.5-21.6-348.3-33.7-348.3-33.7c-13.6-94.8-79.2-296.8-117.7-362.1
						c-95-160.9-424.6-141-537.8-128.9c-21,2.2-35.6,20.7-32,40.4l126.8,671.8h1007.5c0,0,22.7-96.7-22.3-147.5
						C1322.6,2099.1,1298.8,2083.3,1263.5,2078.4z"/>
					<path class="st20" d="M929.2,2042.7c-0.6-3.8-1.2-7.5-1.8-11.3c-3.8-0.3-7.6-0.6-11.4-0.9L929.2,2042.7z"/>
					<path class="st20" d="M1348.1,2119.4c-15.4-20.9-37.7-37.1-62.9-44.7c-6.3-1.9-12.6-3.5-19-4.6l-18.4-3l-36.7-5.6
						c-49-6.9-98.1-12.7-147.3-18c-45.4-4.5-90.8-8.7-136.4-12.2c0.6,3.7,1.2,7.5,1.8,11.3l-13.2-12.2c3.8,0.3,7.6,0.6,11.4,0.9
						c-6.6-39.3-16.4-77.1-26.9-114.7c-11.5-41.2-24.6-81.9-39.2-122.2c-7.4-20.1-14.9-40.2-23.3-60c-8.5-19.9-16.9-39.6-28.4-59.2
						c-23.9-39.6-61.2-68.2-100.6-87.3c-39.7-19.5-82.1-30.6-124.5-38.1c-42.5-7.5-85.4-10.6-128.1-11.4
						c-42.7-0.9-85.4,1.1-127.8,4.7c-21.2,1.9-42.3,4.4-63.4,7.2c-5.1,0.7-10.9,1.4-16,3.7c-5.1,2.2-9.8,5.5-13.4,9.7
						c-7.4,8.2-10.5,19.9-8,30.3c-1.5-10.6,2.6-21.4,10-28.4c3.7-3.5,8.2-6.1,12.9-7.7c4.8-1.7,9.7-1.9,15.1-2.3
						c21.1-1.4,42.3-2.3,63.4-2.8c42.3-1.2,84.5-0.4,126.6,2.2c42,2.8,83.8,7.9,124.7,16.3c40.8,8.5,80.7,21,117.1,39.5
						c36.2,18.5,68.3,44.7,87.8,78.7c9.9,17.2,18.2,36.6,26.2,55.8c8,19.3,15.2,39.1,22.4,58.8c14,39.7,26.7,79.9,38.6,120.3
						c11.6,40.4,22.3,81.4,28.8,122l0,0.3c1,6.4,6.4,11.5,13.1,11.9c49,2.7,98.2,6,147.3,9.9c49.1,3.7,98.2,7.6,147.1,12.6l36.7,3.7
						l18.3,2c5.8,0.7,11.5,1.8,17.1,3.2c22.4,5.7,42.9,18.4,58.1,36.3c14.7,17.9,21.9,41.9,24.9,65.8c2.8,24.2,2.2,49-1.7,73.4
						c6.1-23.9,9.3-48.8,8.2-73.9C1369,2167,1363.6,2141,1348.1,2119.4z"/>
				</g>
			</g>
			<g>
				<rect x="1458" y="1663.9" class="st21" width="1672.1" height="109.1"/>
				<rect x="1458" y="1718.4" class="st22" width="1672.1" height="54.5"/>
				<g>
					<g>
						<polygon class="st22" points="1473.7,2606.9 1417.3,2727.8 3146,2727.8 3086.7,2606.9 						"/>
						<polygon class="st21" points="1473.7,2606.9 1445.5,2667.3 3116.3,2667.3 3086.7,2606.9 						"/>
					</g>
					<path class="st23" d="M1295.1,3102L1295.1,3102c35.1,0,64.6-19.4,68.4-45.1l392.1-1283.8l-129.2,0.4L1295.1,3102z"/>
					<path class="st23" d="M2798.7,1773.1l401.1,1283.8c3.8,25.7,33.3,45.1,68.4,45.1h0l-331.2-1328.5L2798.7,1773.1z"/>
				</g>
			</g>
			<g>
				<g>
					<g>
						<path class="st24" d="M2523.6,1213.5l-579.2-0.5c-7.8,0-14.6,5.2-16,12.3l-80.3,401.1c-1.9,9.3,5.8,17.8,16,17.8l579.2,0.5
							c7.8,0,14.6-5.2,16-12.3l80.3-401.1C2541.4,1222.1,2533.7,1213.5,2523.6,1213.5z"/>
						<polygon class="st6" points="1871.1,1623.7 2438.3,1624.2 2516.4,1234 1949.2,1233.5 						"/>
					</g>
					<g class="st25">
						<polygon class="st5" points="1979.5,1284.7 2015.2,1284.8 2017.7,1272.1 1982,1272 						"/>
						<polygon class="st0" points="2027.6,1284.8 2103.2,1284.9 2105.6,1272.2 2030.1,1272.1 						"/>
						<polygon class="st0" points="1986.8,1492.8 2062.3,1492.9 2064.8,1480.2 1989.3,1480.1 						"/>
						<polygon class="st0" points="1968.7,1585.2 2044.2,1585.3 2046.7,1572.6 1971.2,1572.5 						"/>
						<polygon class="st0" points="1991.4,1469.7 2066.9,1469.7 2069.4,1457 1993.8,1457 						"/>
						<polygon class="st0" points="2043.5,1307.9 2173.5,1308 2176,1295.3 2046,1295.2 						"/>
						<polygon class="st0" points="2058.5,1377.3 2298.6,1377.5 2301.1,1364.8 2061,1364.6 						"/>
						<polygon class="st0" points="2258.1,1331.2 2446.3,1331.4 2448.8,1318.7 2260.6,1318.5 						"/>
						<polygon class="st5" points="2182.2,1308 2312.2,1308.2 2314.7,1295.5 2184.7,1295.3 						"/>
						<polygon class="st5" points="2039,1331 2249.7,1331.2 2252.2,1318.5 2041.5,1318.3 						"/>
						<polygon class="st5" points="2049.4,1423.5 2428.2,1423.9 2430.7,1411.2 2051.9,1410.8 						"/>
						<polygon class="st0" points="2320.9,1308.2 2450.9,1308.3 2453.3,1295.6 2323.3,1295.5 						"/>
						<polygon class="st0" points="2054,1400.4 2155.4,1400.5 2157.9,1387.8 2056.5,1387.7 						"/>
						<polygon class="st5" points="2164,1400.5 2294,1400.6 2296.5,1387.9 2166.5,1387.8 						"/>
						<polygon class="st0" points="2302.7,1400.6 2432.7,1400.7 2435.2,1388 2305.2,1387.9 						"/>
						<polygon class="st5" points="2307.3,1377.5 2437.3,1377.6 2439.7,1364.9 2309.7,1364.8 						"/>
						<polygon class="st0" points="2034.4,1354.1 2441.8,1354.5 2444.3,1341.8 2036.9,1341.4 						"/>
						<polygon class="st0" points="2002.7,1515.9 2132.7,1516 2135.2,1503.3 2005.2,1503.2 						"/>
						<polygon class="st0" points="2217.3,1539.2 2405.5,1539.4 2408,1526.7 2219.8,1526.5 						"/>
						<polygon class="st5" points="2141.4,1516 2271.4,1516.2 2273.9,1503.5 2143.9,1503.3 						"/>
						<polygon class="st5" points="1998.2,1539 2208.9,1539.2 2211.4,1526.5 2000.7,1526.3 						"/>
						<polygon class="st0" points="2280.1,1516.2 2410.1,1516.3 2412.5,1503.6 2282.5,1503.5 						"/>
						<polygon class="st0" points="1993.6,1562.1 2401,1562.5 2403.5,1549.8 1996.1,1549.4 						"/>
						<polygon class="st0" points="2016.3,1446.6 2423.7,1447 2426.1,1434.3 2018.8,1433.9 						"/>
						<polygon class="st5" points="1975,1307.9 2010.7,1307.9 2013.2,1295.2 1977.5,1295.2 						"/>
						<polygon class="st5" points="1970.5,1331 2006.2,1331 2008.7,1318.3 1973,1318.3 						"/>
						<polygon class="st5" points="1965.9,1354.1 2001.6,1354.1 2004.1,1341.4 1968.4,1341.4 						"/>
						<polygon class="st5" points="1961.4,1377.2 1997.1,1377.2 1999.6,1364.5 1963.9,1364.5 						"/>
						<polygon class="st5" points="1956.9,1400.3 1992.6,1400.3 1995.1,1387.6 1959.4,1387.6 						"/>
						<polygon class="st5" points="1952.3,1423.4 1988,1423.4 1990.5,1410.7 1954.8,1410.7 						"/>
						<polygon class="st5" points="1947.8,1446.5 1983.5,1446.6 1986,1433.9 1950.3,1433.8 						"/>
						<polygon class="st5" points="1943.3,1469.6 1979,1469.7 1981.5,1457 1945.8,1456.9 						"/>
						<polygon class="st5" points="1938.7,1492.7 1974.4,1492.8 1976.9,1480.1 1941.2,1480 						"/>
						<polygon class="st5" points="1934.2,1515.9 1969.9,1515.9 1972.4,1503.2 1936.7,1503.2 						"/>
						<polygon class="st5" points="1929.7,1539 1965.4,1539 1967.9,1526.3 1932.2,1526.3 						"/>
						<polygon class="st5" points="1925.1,1562.1 1960.8,1562.1 1963.3,1549.4 1927.6,1549.4 						"/>
						<polygon class="st5" points="1920.6,1585.2 1956.3,1585.2 1958.8,1572.5 1923.1,1572.5 						"/>
					</g>
				</g>
				<g>
					<path class="st26" d="M1668,1647.9l-0.1,12.6c0,3,7.8,5.6,17.5,5.6l525.5,0l18.7-23.4l-544-0.3
						C1675.9,1642.4,1668,1644.8,1668,1647.9z"/>
					<path class="st27" d="M2184.4,1648.1l-0.1,12.6c0,3,4.5,5.5,10.1,5.6l251.7,0.9c5,0,9.4-3.3,10.7-8.1l5-18.4l-267.1,2.1
						C2189,1642.6,2184.4,1645,2184.4,1648.1z"/>
					<polygon points="2373.8,1660.2 2432.4,1660.6 2432.4,1653.1 2373.8,1652.8 					"/>
					<polygon points="2271,1659.6 2329.6,1660 2329.7,1652.5 2271.1,1652.2 					"/>
					<path d="M2243.8,1651.7c-3.1,0-5.6,1.8-5.6,4c0,2.2,2.5,4.1,5.5,4.1c3.1,0,5.6-1.8,5.6-4
						C2249.4,1653.5,2246.9,1651.7,2243.8,1651.7z"/>
				</g>
				<polygon class="st28" points="2022,1233.9 2224.5,1623.7 2345.9,1624.7 2144.4,1233.6 				"/>
				<polygon class="st28" points="2181.3,1233.9 2392.1,1623.7 2438.3,1624.2 2448.3,1581.5 2249.3,1234.4 				"/>
			</g>
			<g>
				<g>
					<path class="st29" d="M2889.7,1606.9h-128.2v59.1h129c3.8,0,6.9-3.1,6.9-6.9v-44.6C2897.3,1610.3,2893.9,1606.9,2889.7,1606.9z
						"/>
					<rect x="2518.1" y="1613.6" class="st30" width="265.4" height="43.9"/>
					<path class="st31" d="M2518.1,1623.2c0.2,1.6,0.3,2.6,0.3,2.6l249.6,1c0,0,8.8-0.2,15.1,11.4v-24.6h-265.1V1623.2z"/>
					<path class="st32" d="M2771.1,1607.2l-268.3,0.7l-0.3,11l265.1-0.5c0,0,13.8-0.8,15.5,16.7s-13.8,20-13.8,20l-264.6,0.3
						l-0.4,12.7l260.6-1c0,0,27.5,2,29.7-27.4C2796.8,1610.3,2771.1,1607.2,2771.1,1607.2z"/>
				</g>
				<g>
					<path class="st23" d="M2888.8,1547.4h-128.2v59.1h129c3.8,0,6.9-3.1,6.9-6.9V1555C2896.4,1550.8,2893,1547.4,2888.8,1547.4z"/>
					<rect x="2517.2" y="1553.3" class="st30" width="265.7" height="43.9"/>
					<path class="st31" d="M2517.2,1562.9c0.2,1.6,0.3,2.6,0.3,2.6l249.6,1c0,0,8.8-0.2,15.1,11.4v-24.6h-265V1562.9z"/>
					<path class="st21" d="M2770.2,1546.9l-268.3,0.7l-0.3,11l265.1-0.5c0,0,13.8-0.8,15.5,16.7c1.8,17.5-13.8,20-13.8,20
						l-264.6,0.3l-0.4,12.7l260.6-1c0,0,27.5,2,29.7-27.4C2795.9,1550,2770.2,1546.9,2770.2,1546.9z"/>
				</g>
			</g>
			<path class="st12" d="M979.6,914.1c0,0,3-0.6,8-2.1C983.9,911.6,981.1,912.3,979.6,914.1z"/>
			<path class="st12" d="M1097.9,836.9c33.2-61.4,28.7-76.9,23.2-92.5c-4.6-12.9-26-37.7-96.9-11.1c-70.9,26.5-112.7-28.1-150,98.1
				s-11.9,330-246.2,395.9c-238.3,67-169.5,261.8-29.2,273.5c0,0-87.9-88.5,3.3-123.1c0,0-66.5,141.2,93.5,133.8
				c0,0,21.2,37.9,57.1,20.4c0,0-15.9-15-6-36.2c0,0,23.7,68.2,84.2,46.1c0,0-73.8-65.9,19-126.4c0,0-48.4,53.9-17.2,106.2
				c16.6,27.8,50.5,28.9,50.5,28.9s-17.1-16.7-21-24.5c-18.4-36.2-0.5-85.4,94-120c152.6-55.9,157-119.6,141.7-189
				c-7-31.5-73.7-92.3-52.6-189.1c16.3-74.7-35.8-113.5-57.7-115.6c-5,1.4-8,2.1-8,2.1c1.5-1.7,4.3-2.4,8-2.1
				C1009.8,905.7,1072.2,884.4,1097.9,836.9z"/>
			<g>
				<path class="st8" d="M1026.5,874.5c-22.9-5.4-45.9,9.1-51.2,32.4c-5.3,23.3,8.9,46.6,31.9,52c22.9,5.4,45.9-9.1,51.2-32.4
					C1063.7,903.2,1049.4,879.9,1026.5,874.5z"/>
				<path class="st13" d="M1020.2,899.9c-0.8-1.2-2.4-1.5-3.6-0.7c-1.2,0.8-1.5,2.4-0.7,3.6l22.2,32.5c0.5,0.7,1.3,1.1,2.2,1.1
					c0.5,0,1-0.1,1.5-0.5c1.2-0.8,1.5-2.4,0.7-3.6L1020.2,899.9z"/>
			</g>
			<g>
				<path class="st8" d="M1743,2895.1c-1.7-2.2-8.8-87.4-8.8-87.4l-1.8-4.4l-102.8,5.5l10.6,67c3.3,15.5-0.9,22.8-0.9,22.8
					s125,61.9,141.7,64.7c16.7,2.7,68.4-8.5,68.4-8.5l-12.4-2.5C1773.3,2934.8,1744.6,2897.3,1743,2895.1z"/>
				<g>
					<path class="st27" d="M1836.9,2952.2c0,0-18.2,4.6-50.6,4.5c-32.3-0.1-145.6-67.1-145.6-67.1c-9.6,22.4-8.8,71.5-8.8,71.5
						l26.9,75.9l31.9-3.9c0,0-3.4-27.9-6.6-42c-3.2-14.1,17.6-7.6,17.6-7.6l89.8,34.7c107.3,4.5,142.8-45.1,142.8-45.1
						C1920.3,2975.3,1836.9,2952.2,1836.9,2952.2z"/>
					<path class="st33" d="M1786.3,2956.7c-32.3-0.1-145.6-67.1-145.6-67.1c-1.9,4.4-3.4,9.8-4.5,15.7
						c12.4,7.2,115.7,66.5,142.4,66.1c26.4-0.4,80.7-9.9,88.6-11.3c-16.9-4.3-30.3-8-30.3-8S1818.6,2956.8,1786.3,2956.7z"/>
				</g>
			</g>
			<g>
				<path class="st8" d="M2179.6,2385.3c-2.8-0.4-69-57.5-69-57.5l-9.8-8.4l-68.8,82.7l58.6,42.9c13.5,8.9,15.7,17.3,15.7,17.3
					s135.6-44.4,149.7-54.4c14.1-10,43.8-55.2,43.8-55.2l-10.9,7.1C2230.2,2392.5,2182.4,2385.6,2179.6,2385.3z"/>
				<g>
					<path class="st27" d="M2289,2359.6c0,0-10,16.4-33.7,39.6c-23.7,23.1-154.3,55.4-154.3,55.4c9,23.2,44.7,58.6,44.7,58.6
						l74,36.2l20.5-25.7c0,0-22.5-17.9-34.9-26c-12.4-8.1,7.4-18.2,7.4-18.2l90.4-39.1c81.5-73.7,72-135.3,72-135.3
						C2366.4,2316.7,2289,2359.6,2289,2359.6z"/>
					<path class="st33" d="M2255.4,2399.2c-23.7,23.1-154.3,55.4-154.3,55.4c1.8,4.6,4.6,9.6,7.9,14.7c14.2-3.6,132-34.4,151.3-53.8
						c19-19.2,51.8-65,56.6-71.7c-15.4,9-27.9,15.9-27.9,15.9S2279,2376,2255.4,2399.2z"/>
				</g>
			</g>
			<g>
				<g class="st25">
					<path d="M687.4,861.1c7.7-85.3-55.1-160.7-140.3-168.4c-85.2-7.7-160.5,55.2-168.2,140.5c-7.7,85.3,55.1,160.7,140.3,168.4
						c58.7,5.3,112.7-22.9,143.1-68.8l104.8,9.5l-82.8-61.7C685.7,874.3,686.8,867.8,687.4,861.1z"/>
				</g>
				<g>
					<path class="st0" d="M696.3,849.9c7.7-85.3-55.1-160.7-140.3-168.4c-85.2-7.7-160.5,55.2-168.2,140.5
						c-7.7,85.3,55.1,160.7,140.3,168.4c58.7,5.3,112.7-22.9,143.1-68.8l104.8,9.5l-82.8-61.7C694.7,863.1,695.7,856.6,696.3,849.9z
						"/>
					<g>
						<polygon class="st5" points="426.3,848.2 489.5,888.4 490.4,878.5 437.1,845.4 437.1,845.2 495.5,822.2 496.4,812.3 
							427,840.5 						"/>
						<polygon class="st5" points="505.4,895.6 515,896.5 564.4,796.4 554.7,795.6 						"/>
						<polygon class="st5" points="577.7,829.6 631.4,862.8 631.4,863 572.6,886 571.7,895.8 641,867.8 641.7,859.8 578.5,819.8 
													"/>
					</g>
				</g>
			</g>
			<g>
				<g>
					<g>
						<path class="st1" d="M1629.4,390.1h-145.1c-1.5,0-2.7,1.2-2.7,2.7V537c0,1.5,1.2,2.7,2.7,2.7h145.1c1.5,0,2.7-1.2,2.7-2.7
							V392.8C1632.1,391.3,1630.9,390.1,1629.4,390.1z"/>
						<path class="st34" d="M1625.4,391.2c-0.1-0.1-0.3,0-0.4,0.1c-52.3,81.2-109.3,119.4-143.3,136.3c-0.1,0-0.1,0.1-0.1,0.2
							c0,6.6,5.3,11.9,11.9,11.9h126.7c6.6,0,11.9-5.3,11.9-11.9V401.7C1632.1,397,1629.3,393,1625.4,391.2z"/>
					</g>
				</g>
				<path class="st5" d="M1582.9,472.9l-4.2-2.4c-0.3-0.1-0.4-0.4-0.4-0.7c0.1-0.7,0.1-1.5,0.1-2.2c0-1.4-0.1-2.8-0.4-4.2
					c-0.1-0.3,0.1-0.6,0.3-0.8l3.5-2.1c1.4-0.8,1.9-2.7,1.1-4.1l-4.9-8.4c-0.8-1.4-2.7-1.9-4.1-1.1l-3.9,2.2
					c-0.3,0.1-0.6,0.1-0.8-0.1c-1.8-1.4-3.9-2.6-6.1-3.4c-0.3-0.1-0.5-0.4-0.5-0.7v-3.5c0-1.7-1.4-3-3-3h-9.7c-1.7,0-3,1.4-3,3v3.5
					c0,0.3-0.2,0.6-0.5,0.7c-2.5,1-4.8,2.3-6.8,4c-0.2,0.2-0.6,0.2-0.8,0.1l-2.2-1.3c-1.4-0.8-3.3-0.3-4.1,1.1l-4.9,8.4
					c-0.8,1.4-0.3,3.3,1.1,4.1l2.5,1.4c0.3,0.2,0.4,0.4,0.4,0.7c-0.2,1.1-0.2,2.1-0.2,3.2c0,1.8,0.2,3.5,0.6,5.1
					c0.1,0.3-0.1,0.6-0.3,0.8l-1.9,1.1c-1.4,0.8-1.9,2.7-1.1,4.1l4.9,8.4c0.8,1.4,2.7,1.9,4.1,1.1l2.8-1.6c0.2-0.1,0.6-0.1,0.8,0
					c2.1,1.5,4.5,2.7,7.1,3.4c0.3,0.1,0.5,0.4,0.5,0.7v2.9c0,1.7,1.4,3,3,3h9.7c1.7,0,3-1.4,3-3v-4.3c0-0.3,0.2-0.5,0.4-0.7
					c2.1-1,4-2.3,5.7-3.9c0.2-0.2,0.6-0.3,0.9-0.1l3.3,1.9c1.4,0.8,3.3,0.3,4.1-1.1l4.9-8.4C1584.8,475.6,1584.3,473.7,1582.9,472.9
					z M1555.9,479c-6.3,0-11.5-5.2-11.5-11.5c0-6.4,5.1-11.5,11.5-11.5c6.3,0,11.5,5.2,11.5,11.5
					C1567.4,473.8,1562.2,479,1555.9,479z"/>
			</g>
			<g>
				<path class="st0" d="M3162.1,861c-2.9,0-5.3,2.4-5.3,5.3v26.7c0,3,2.4,5.3,5.3,5.3c2.9,0,5.3-2.4,5.3-5.3v-26.7
					C3167.4,863.4,3165,861,3162.1,861z"/>
				<path class="st0" d="M3162.1,914.9c-2.9,0-5.3,2.4-5.3,5.3v27.1c0,3,2.4,5.3,5.3,5.3c2.9,0,5.3-2.4,5.3-5.3v-27.1
					C3167.4,917.3,3165,914.9,3162.1,914.9z"/>
				<path class="st0" d="M3188.9,996.4l-21.5-0.4v-21.5c0-3-2.4-5.3-5.3-5.3c-2.9,0-5.3,2.4-5.3,5.3v32l31.9,0.7c0,0,0.1,0,0.1,0
					c2.9,0,5.3-2.3,5.3-5.2C3194.2,998.9,3191.8,996.5,3188.9,996.4z"/>
				<path class="st0" d="M3258.4,997.9l-34.8-0.7c0,0-0.1,0-0.1,0c-2.9,0-5.3,2.3-5.3,5.2c-0.1,3,2.3,5.4,5.2,5.5l34.8,0.7
					c0,0,0.1,0,0.1,0c2.9,0,5.3-2.3,5.3-5.2C3263.7,1000.4,3261.4,997.9,3258.4,997.9z"/>
				<path class="st0" d="M3293.2,998.6c0,0-0.1,0-0.1,0c-2.9,0-5.3,2.3-5.3,5.2c-0.1,3,2.3,5.4,5.2,5.5l21.5,0.4l0.3,21.6
					c0,2.9,2.4,5.3,5.3,5.3c0,0,0,0,0.1,0c2.9,0,5.3-2.5,5.3-5.4l-0.4-31.9L3293.2,998.6z"/>
				<path class="st0" d="M3321,1089.2C3321,1089.2,3321,1089.2,3321,1089.2c-3,0-5.4,2.5-5.3,5.4l0.9,63.3c0,2.9,2.4,5.3,5.3,5.3
					c0,0,0,0,0.1,0c2.9,0,5.3-2.5,5.3-5.4l-0.9-63.3C3326.3,1091.5,3323.9,1089.2,3321,1089.2z"/>
				<path class="st0" d="M3322.6,1215.8c-2.9,0-5.3,2.5-5.3,5.4l0.4,26.7c0,2.9,2.4,5.3,5.3,5.3c0,0,0,0,0.1,0
					c2.9,0,5.3-2.5,5.3-5.4l-0.4-26.7C3328,1218.1,3325.6,1215.8,3322.6,1215.8z"/>
			</g>
			<g>
				<path class="st35" d="M3427,1255.4h-38.2V1191l-34.9-34.9h-245.5v135.2h-25.5c-13,0-23.6,10.6-23.6,23.6v204.1
					c0,13,10.6,23.6,23.6,23.6h331.6c13,0,23.6-10.6,23.6-23.6v-152.5v-51.6v-48.5C3437.9,1260.3,3433,1255.4,3427,1255.4z"/>
				<g>
					<g>
						<g>
							<polygon class="st5" points="3128.3,1134.5 3128.3,1514 3408.8,1514 3408.8,1169.4 3373.8,1134.5 							"/>
							<polygon class="st36" points="3373.8,1169.4 3408.7,1169.4 3373.8,1134.5 							"/>
						</g>
						<g>
							<rect x="3204.1" y="1195.9" class="st36" width="169.7" height="18.1"/>
							<rect x="3163.3" y="1235.4" class="st36" width="210.6" height="18.1"/>
							<rect x="3163.3" y="1275" class="st37" width="210.6" height="18.1"/>
							<rect x="3163.3" y="1314.5" class="st37" width="210.6" height="18.1"/>
							<rect x="3163.3" y="1354" class="st37" width="210.6" height="18.1"/>
						</g>
					</g>
					<g>
						<path class="st0" d="M3434.3,1269.6h-331.6c-13,0-23.6,10.6-23.6,23.6v204.1c0,13,10.6,23.6,23.6,23.6h331.6
							c13,0,23.6-10.6,23.6-23.6v-204.1C3457.9,1280.2,3447.3,1269.6,3434.3,1269.6z"/>
						<path class="st1" d="M3447,1233.8h-153.9c-6,0-10.9,4.9-10.9,11v100c0,6,4.9,10.9,10.9,10.9H3447c6,0,10.9-4.9,10.9-10.9v-100
							C3457.9,1238.7,3453,1233.8,3447,1233.8z"/>
						<g>
							<path class="st5" d="M3307.4,1334.7h-77.8c-14,0-25.4,11.4-25.4,25.5v77.8c0,14.1,11.4,25.5,25.4,25.5h77.8
								c14,0,25.4-11.4,25.4-25.5v-77.8C3332.9,1346.1,3321.5,1334.7,3307.4,1334.7z"/>
							<path class="st0" d="M3268.6,1362.2c-14.5,0-26.2,11.7-26.2,26.2c0,10.5,6.1,19.4,15,23.6v10.2c0,6.2,5,11.2,11.2,11.2
								c6.2,0,11.2-5,11.2-11.2V1412c8.8-4.2,15-13.2,15-23.6C3294.7,1373.9,3283,1362.2,3268.6,1362.2z"/>
						</g>
					</g>
				</g>
			</g>
			<g>
				<g>
					<rect x="1762.6" y="270" class="st1" width="82.8" height="9.9"/>
					<path class="st1" d="M2036,270h-159.5c-2.7,0-4.9,2.2-4.9,4.9v0c0,2.7,2.2,4.9,4.9,4.9H2036c2.7,0,4.9-2.2,4.9-4.9v0
						C2040.9,272.2,2038.7,270,2036,270z"/>
					<path class="st5" d="M1875.6,309.9h-72.9c-2.7,0-4.9,2.2-4.9,4.9v0c0,2.7,2.2,4.9,4.9,4.9h72.9c2.7,0,4.9-2.2,4.9-4.9v0
						C1880.5,312.1,1878.3,309.9,1875.6,309.9z"/>
					<path class="st0" d="M2385.8,309.9h-474.1c-2.7,0-4.9,2.2-4.9,4.9v0c0,2.7,2.2,4.9,4.9,4.9h474.1c2.7,0,4.9-2.2,4.9-4.9v0
						C2390.7,312.1,2388.5,309.9,2385.8,309.9z"/>
					<path class="st5" d="M1875.6,347h-72.9c-2.7,0-4.9,2.2-4.9,4.9v0c0,2.7,2.2,4.9,4.9,4.9h72.9c2.7,0,4.9-2.2,4.9-4.9v0
						C1880.5,349.2,1878.3,347,1875.6,347z"/>
					<path class="st0" d="M2385.8,347h-474.1c-2.7,0-4.9,2.2-4.9,4.9v0c0,2.7,2.2,4.9,4.9,4.9h474.1c2.7,0,4.9-2.2,4.9-4.9v0
						C2390.7,349.2,2388.5,347,2385.8,347z"/>
					<path class="st5" d="M1875.6,384h-72.9c-2.7,0-4.9,2.2-4.9,4.9v0c0,2.7,2.2,4.9,4.9,4.9h72.9c2.7,0,4.9-2.2,4.9-4.9v0
						C1880.5,386.2,1878.3,384,1875.6,384z"/>
					<path class="st0" d="M2385.8,384h-474.1c-2.7,0-4.9,2.2-4.9,4.9v0c0,2.7,2.2,4.9,4.9,4.9h474.1c2.7,0,4.9-2.2,4.9-4.9v0
						C2390.7,386.2,2388.5,384,2385.8,384z"/>
					<path class="st5" d="M1875.6,421h-72.9c-2.7,0-4.9,2.2-4.9,4.9v0c0,2.7,2.2,4.9,4.9,4.9h72.9c2.7,0,4.9-2.2,4.9-4.9v0
						C1880.5,423.2,1878.3,421,1875.6,421z"/>
					<path class="st1" d="M1840.4,460.2h-72.9c-2.7,0-4.9,2.2-4.9,4.9v0c0,2.7,2.2,4.9,4.9,4.9h72.9c2.7,0,4.9-2.2,4.9-4.9v0
						C1845.3,462.4,1843.1,460.2,1840.4,460.2z"/>
					<path class="st1" d="M2036,460.2h-159.5c-2.7,0-4.9,2.2-4.9,4.9v0c0,2.7,2.2,4.9,4.9,4.9H2036c2.7,0,4.9-2.2,4.9-4.9v0
						C2040.9,462.4,2038.7,460.2,2036,460.2z"/>
					<path class="st5" d="M2213.9,500.1h-302.3c-2.7,0-4.9,2.2-4.9,4.9v0c0,2.7,2.2,4.9,4.9,4.9h302.3c2.7,0,4.9-2.2,4.9-4.9v0
						C2218.8,502.3,2216.6,500.1,2213.9,500.1z"/>
					<path class="st5" d="M2213.9,537.2h-302.3c-2.7,0-4.9,2.2-4.9,4.9v0c0,2.7,2.2,4.9,4.9,4.9h302.3c2.7,0,4.9-2.2,4.9-4.9v0
						C2218.8,539.4,2216.6,537.2,2213.9,537.2z"/>
					<path class="st0" d="M1875.6,537.2h-17.6c-2.7,0-4.9,2.2-4.9,4.9v0c0,2.7,2.2,4.9,4.9,4.9h17.6c2.7,0,4.9-2.2,4.9-4.9v0
						C1880.5,539.4,1878.3,537.2,1875.6,537.2z"/>
					<path class="st0" d="M1875.6,574.2h-72.9c-2.7,0-4.9,2.2-4.9,4.9v0c0,2.7,2.2,4.9,4.9,4.9h72.9c2.7,0,4.9-2.2,4.9-4.9v0
						C1880.5,576.4,1878.3,574.2,1875.6,574.2z"/>
					<path class="st5" d="M2213.9,574.2h-302.3c-2.7,0-4.9,2.2-4.9,4.9v0c0,2.7,2.2,4.9,4.9,4.9h302.3c2.7,0,4.9-2.2,4.9-4.9v0
						C2218.8,576.4,2216.6,574.2,2213.9,574.2z"/>
					<path class="st5" d="M2389.3,500.1h-143.1c-2.7,0-4.9,2.2-4.9,4.9v0c0,2.7,2.2,4.9,4.9,4.9h143.1c2.7,0,4.9-2.2,4.9-4.9v0
						C2394.2,502.3,2392,500.1,2389.3,500.1z"/>
					<path class="st5" d="M2389.3,537.2h-143.1c-2.7,0-4.9,2.2-4.9,4.9v0c0,2.7,2.2,4.9,4.9,4.9h143.1c2.7,0,4.9-2.2,4.9-4.9v0
						C2394.2,539.4,2392,537.2,2389.3,537.2z"/>
					<path class="st5" d="M2389.3,574.2h-143.1c-2.7,0-4.9,2.2-4.9,4.9v0c0,2.7,2.2,4.9,4.9,4.9h143.1c2.7,0,4.9-2.2,4.9-4.9v0
						C2394.2,576.4,2392,574.2,2389.3,574.2z"/>
					<path class="st0" d="M2385.8,421h-474.1c-2.7,0-4.9,2.2-4.9,4.9v0c0,2.7,2.2,4.9,4.9,4.9h474.1c2.7,0,4.9-2.2,4.9-4.9v0
						C2390.7,423.2,2388.5,421,2385.8,421z"/>
				</g>
			</g>
			<g>
				<g>
					<path class="st38" d="M3151.4,1990.2c-8.3-14.4-16.4-28.8-20.4-44.8c-4.9-19.4-3.5-39.7-3.7-59.7
						c-0.8-72-23.7-175.2-104.5-197.1c-33.2-9-72.4,2.7-91.1,31.7c-19.8,30.8-10.4,63.1-11,96.7c-0.6,33-23.1,61.2-23,96
						c0,2.7,0.1,5.4,0.3,8.2c4.6-2.5,10.2-4,16.3-4c15.4,0,28,9.5,28,21.2c0,11.7-12.5,21.2-28,21.2c-3.6,0-6.9-0.5-10.1-1.4
						c5.3,18.6,13.5,36.5,24.1,52.7c7.8,11.9,16.8,23.1,23,36c18.8,39.4,7.2,86.6-10.9,126.3c-18.1,39.7-42.7,77.5-50.1,120.6
						c-8.4,48.8,7.6,91.4,30.6,133.3c22.6,41.1,67.3,73.3,101,105.9c-7.8-7.5,77.3-95.1,85.6-105.7c22.9-29.3,43.3-61.1,57.8-95.5
						c14.4-34,17.1-67.7,21.7-103.8c9.2-73,10-151.2-24.6-218.2C3158.8,2003.2,3155.1,1996.7,3151.4,1990.2z"/>
					<g>
						<g class="st25">
							<path class="st39" d="M3151.4,1990.2c-8.3-14.4-16.4-28.8-20.4-44.8c-4.9-19.4-3.5-39.7-3.7-59.7
								c-0.8-72-23.7-175.2-104.5-197.1c-16-4.3-33.5-3.8-49.4,1.1c29.6,53.3,59.3,110.4,55.5,171.2c-2,31.1-12.8,61.5-11.7,92.6
								c1.3,37.2,19.2,71.5,35,105.1c49,104.5,56.1,208.6,9.1,315.5c-20,45.6-45.1,89.1-66.4,134.1c9.3,8.3,18.5,16.4,26.9,24.6
								c-7.8-7.5,77.3-95.1,85.6-105.7c22.9-29.3,43.3-61.1,57.8-95.5c14.4-34,17.1-67.7,21.7-103.8c9.2-73,10-151.2-24.6-218.2
								C3158.8,2003.2,3155.1,1996.7,3151.4,1990.2z"/>
						</g>
						<g>
							<g>
								<path class="st39" d="M3007.2,2453.8c-8.7-39-13.7-78.5-12.7-118.5c1.1-40.9,13.1-80.8,24.8-119.6
									c22.2-73.6,31.9-142,27.1-218.9c-4.7-75.6-13.9-151.8-31.9-225.4c-1.8-7.2-12.7-4.1-11,3c18.7,76.2,27.3,154.7,32.2,232.9
									c5,79.4-10.9,149.8-33.3,225.3c-19.3,65.1-23.3,127.3-12.1,194.4c12.8,76.9,40.2,150.5,49.3,228.2c0.8,7.2,12.2,7.3,11.4,0
									C3043,2586.6,3022.1,2520.9,3007.2,2453.8z"/>
							</g>
							<g>
								<path class="st39" d="M2890.8,2350c0.5,2.8,1.1,5.7,1.8,8.5c31,22.9,63,44.3,96.1,64c0.5,0.8,1.3,1.3,2.2,1.4
									c0.3,0.2,0.7,0.4,1,0.6c2.5,1.5,4.7-1.2,4.1-3.3c62.9-39.3,123.3-82.3,181.2-128.6c0.6-2.9,1.2-5.8,1.7-8.7
									c-59.9,48.2-122.5,92.8-187.7,133.5C2956.7,2396.7,2923.2,2374.2,2890.8,2350z"/>
								<path class="st39" d="M2989.5,2297.3c-27-19.8-53.9-39.6-80.9-59.4c-0.8,1.8-1.6,3.5-2.4,5.3c26.8,19.6,53.6,39.3,80.4,59
									C2989.6,2304.4,2992.5,2299.4,2989.5,2297.3z"/>
								<path class="st39" d="M2995,2300.5c63.3-47,129-90.5,196.8-130.4c0.1-2.2,0.1-4.5,0.2-6.7c-69,40.4-135.7,84.5-199.9,132.2
									C2989.2,2297.7,2992.1,2302.7,2995,2300.5z"/>
								<path class="st39" d="M3025.3,2174.7c-1,0.8-1.3,1.9-1.2,2.9c-22.5-17-45-34-67.6-51c-0.5,2-1,4-1.5,6
									c22.1,16.7,44.2,33.4,66.3,50.1c2.2,1.6,4.3-0.7,4.1-2.9c0.8,0.5,1.7,0.7,2.8-0.1c51.2-37.9,103-75,155.4-111.3
									c-0.5-2-0.9-4-1.4-6C3129.3,2099.1,3077,2136.5,3025.3,2174.7z"/>
								<path class="st39" d="M3040,2060.8C3040,2060.9,3040,2060.9,3040,2060.8c-43.9-22.2-85.9-47.6-126-76
									c1.6,3.5,3.3,7,5.2,10.5c38.4,26.6,78.5,50.7,120.2,71.8c1.9,1,3.7-0.3,4.1-1.9c0.2-0.1,0.3-0.2,0.5-0.3
									c32.5-30.5,65.5-60.3,98.9-89.8c-0.9-1.7-1.8-3.5-2.7-5.2C3106.4,1999.7,3073,2030,3040,2060.8z"/>
								<path class="st39" d="M3124.2,1842.5c-30.6,30.4-61.2,60.8-91.8,91.3c-42.7-18.7-85.5-37.4-128.2-56.1
									c-0.6,1.8-1.2,3.6-1.7,5.4c42.2,18.5,84.4,36.9,126.6,55.4c0.3,1.9,2.7,3.5,4.5,2c0.1,0,0.1,0,0.2,0.1
									c2.8,1.2,5.3-2.1,3.9-4.1c29.1-28.9,58.2-57.9,87.3-86.8C3124.8,1847.3,3124.6,1844.9,3124.2,1842.5z"/>
								<path class="st39" d="M3017.6,1807.3c-32.9-12.3-65.8-24.5-98.6-36.8c0,2,0,4.1,0.1,6.1c32.9,12.3,65.9,24.6,98.8,36.8
									c1.6,0.6,2.8-0.3,3.2-1.6c0.1-0.1,0.2-0.1,0.2-0.2c20.9-26.3,42.7-51.9,65.2-76.8c-1.1-1.6-2.3-3.1-3.5-4.7
									C3060.5,1755.2,3038.6,1780.9,3017.6,1807.3z"/>
							</g>
						</g>
					</g>
				</g>
				<g>
					<path class="st38" d="M2839.2,2421.8c-24.5-28.1-59.1-44.8-89.9-65.7c-30.8-20.9-60.2-50.2-63.9-87.4
						c-1.2-12.1,0.5-24.3,0.9-36.5c1-29.6-5.7-59.7-20.9-85c-10.7-17.8-28-28.3-42.6-41.1c-0.3,0.7-0.6,1.5-0.9,2.2
						c-6.1,13.3-18.5,20.6-27.5,16.4c-9.1-4.2-11.5-18.4-5.4-31.7c2.9-6.4,7.3-11.3,12-14.4c-12.2-21.9-20.9-44.9-45.7-56.9
						c-26.4-12.8-60.3-3.9-80.5,17.5c-49.3,52-20.4,137.5,10.9,190.4c8.7,14.7,18.7,28.9,23.7,45.2c4.1,13.5,4.6,27.6,4.9,41.8
						c0.1,3,0.1,6,0.2,9c2.4-0.3,4.9-0.4,7.4-0.4c19.9,0,36.1,8.4,36.1,18.7c0,10.3-16.1,18.7-36.1,18.7c-1.1,0-2.2,0-3.3-0.1
						c10.8,53.4,41.4,101.2,74.9,143.4c19.3,24.4,36.2,47.7,61.7,66.1c25.8,18.6,54.8,32.8,84.5,44c10.7,4,111.6,30.1,109.3,39
						c10.2-38.8,28.5-82.3,26.8-122.3C2874.1,2491.9,2867,2453.7,2839.2,2421.8z"/>
					<g>
						<g>
							<path class="st39" d="M2825.1,2563.6c-21.5-53.9-51.9-97.6-94.8-136.5c-49.7-45.1-92.5-89.5-124-149.7
								c-31-59.3-59.5-120.4-79.5-184.4c-1.9-6-11.2-3.3-9.4,2.7c19.4,61.8,46.4,121.5,76.4,178.8c30.5,58.3,67.9,104,116.6,147.8
								c25.8,23.2,52.2,46.9,71.1,76.3c18.5,28.7,32.3,59.8,43.2,92.1c18.8,55.7,32.6,113,57.1,166.6c2.6,5.7,10.9,0.6,8.3-5.1
								C2862.4,2691.5,2849.8,2625.5,2825.1,2563.6z"/>
						</g>
						<g>
							<path class="st39" d="M2820.1,2557.1c-65.6-0.7-131.1-5.3-196.1-13.9c1.7,1.9,3.4,3.7,5.1,5.6c62.8,8,125.9,12.4,189.2,13.1
								c0.5,1.8,3.3,2.8,4.5,0.6c0.2-0.3,0.3-0.6,0.5-0.9c0.7-0.4,1-1.2,1-2c15.4-29.2,29.4-59,41.9-89.5c-0.8-2.4-1.6-4.7-2.4-7
								C2850.8,2495.2,2836.2,2526.6,2820.1,2557.1z"/>
							<path class="st39" d="M2768.3,2468.6c-1.2,2.9,3.1,5.2,4.3,2.3c10.8-26.3,21.7-52.6,32.6-78.9c-1.4-0.9-2.7-1.9-4.1-2.8
								C2790.2,2415.7,2779.2,2442.1,2768.3,2468.6z"/>
							<path class="st39" d="M2765.6,2468.5c-68-6.2-136.2-8.7-204.5-7.5c1,1.6,2.1,3.2,3.1,4.8c67.2-1.1,134.4,1.4,201.4,7.5
								C2768.9,2473.7,2768.7,2468.8,2765.6,2468.5z"/>
							<path class="st39" d="M2690.1,2396.7c-0.3-0.8-1-1.5-2.1-1.6c-54.7-4.9-109.4-8.9-164.2-12.2c0.5,1.7,1.1,3.3,1.6,5
								c54.3,3.3,108.5,7.2,162.7,12.1c1.1,0.1,1.7-0.4,2.1-1.2c0.8,1.7,3.4,2.5,4.2,0.3c8.7-22,17.5-44,26.2-66.1
								c-1.3-1.2-2.5-2.4-3.7-3.7C2707.9,2351.8,2699,2374.2,2690.1,2396.7z"/>
							<path class="st39" d="M2626.9,2318.5C2626.9,2318.5,2626.9,2318.5,2626.9,2318.5c-37.8-7.9-75.6-15.1-113.5-21.8
								c0.1,1.7,0.3,3.3,0.4,5c37.4,6.6,74.7,13.7,111.9,21.5c0.2,0,0.3,0,0.5,0c1.1,0.9,2.9,1.1,3.9-0.5c21.1-34,39.8-69.4,56-106
								c-0.2-3.3-0.5-6.6-0.9-9.9C2668.5,2245.4,2649,2282.7,2626.9,2318.5z"/>
							
								<image style="overflow:visible;" width="180" height="106" xlink:href="45F1C79C2ED23FC4.png"  transform="matrix(1 0 0 1 2468.7317 2124)">
							</image>
							<path class="st39" d="M2531,2123.4c-27-9.9-54.3-18.9-81.9-27.1c-0.2,1.6-0.3,3.3-0.5,5c27.5,8.2,54.7,17.2,81.6,27.1
								c0.1,0,0.2,0,0.2,0c0.9,0.7,2.1,0.9,3.1-0.3c18.6-23.6,37.2-47.3,55.8-70.9c-0.9-1.5-1.7-3-2.6-4.5
								C2568.2,2076.2,2549.6,2099.8,2531,2123.4z"/>
						</g>
					</g>
				</g>
				<path class="st39" d="M3037.4,2311.1c-2.9-16.7-7.4-33.1-15.8-49.3c-14.5-27.8-34.9-50.8-55.9-73.7
					c-13.7-14.9-26.2-30.2-29.4-50.8c-7.5-47.9,10.6-92-21.7-135.2c-11.4-15.2-26.4-27.3-37.2-42.9c-20.2-29.3-22.6-67.1-34.6-100.7
					c-13.8-38.7-41-72.4-75.9-93.8c-20.7-12.7-45.8-21.4-66.1-4.9c-17.7,14.3-28.4,36.1-31.9,58.5c-8.3,52.9,26,106.9,12.8,158.8
					c-6.4,25.3-23.3,46.3-34.7,69.7c-21.5,44.1-7.9,118.1,26.1,153.3c14.6,15.1,30.9,28.5,43.7,45c21.8,28,15.7,63.9,16.9,97.9
					c0.6,17.1,1.2,34.2,4.7,50.9c1.2,5.9,2.8,11.5,4.6,17c4-7.2,13.6-12.2,24.7-12.2c14.8,0,26.7,8.9,26.7,20s-12,20-26.7,20
					c-4.9,0-9.5-1-13.4-2.7c45.6,80.5,162.4,117,225.3,178.2c-2.4-24.5,6.3-48.7,17.4-70.7c11.1-21.9,24.8-42.6,33.5-65.6
					c12.9-33.8,19.3-76.4,14.2-112.2C3041.9,2346.9,3040.5,2328.8,3037.4,2311.1z"/>
				<g>
					<g>
						<g>
							<path class="st40" d="M2944.6,2522.4c-39.7-70.7-90-128.2-99.9-211.7c-4.6-39-2.2-78.9-3.9-118.1
								c-1.8-40.4-6.3-80.6-13.1-120.4c-12.5-73.6-40.2-141.8-71-209.3c-3.1-6.7-13.4-1.9-10.3,4.8c32.1,70.4,59,140.5,72,217.2
								c12.9,75.7,8.3,151.6,15.2,227.6c6.4,70,43.5,123.2,80.3,180.5c44.1,68.7,77.8,144.3,93.1,224.7c1.4,7.2,12.6,5.4,11.2-1.8
								C3005,2647.2,2978.7,2583.2,2944.6,2522.4z"/>
						</g>
						<g>
							<path class="st40" d="M3042.4,2348.8c-40.6,49.1-82.3,97.2-125.4,144c-47.6-9-95.2-18.5-142.6-28.5c2.1,2.4,4.3,4.8,6.6,7.2
								c44.8,9.4,89.6,18.4,134.5,26.8c0.8,0.7,2,1,3.1,0.6c0.6,0.1,1.3,0.2,1.9,0.4c2.8,0.5,3.7-2.7,2.4-4.5
								c41.4-45,81.4-91.1,120.5-138.2C3043,2354,3042.7,2351.4,3042.4,2348.8z"/>
							<path class="st40" d="M2928.7,2265.2c-28.2,33.1-54.2,67.9-78.4,104c-29.3-1.4-58.9-7.9-87.9-12.3
								c-9.5-1.4-18.9-2.8-28.4-4.2c0.1,1.9,0.2,3.9,0.3,5.8c9.2,1.4,18.3,2.7,27.5,4.1c28.7,4.3,57.9,10.7,86.9,12.2
								c1,1.5,3.3,2.1,4.6,0.2c24.7-37,51.4-72.4,80.1-106.4c16.8-19.9,34.6-39,51.4-58.9c-1.2-1.4-2.5-2.9-3.7-4.3
								C2964,2225.6,2945.9,2245,2928.7,2265.2z"/>
							<path class="st40" d="M2832.3,2266.9c-38.4-7.1-76.9-14.2-115.3-21.4c1.7,2.2,3.1,4.4,4.5,6.6c35.9,6.7,71.9,13.3,107.8,20
								c0.3,2.1,3.4,3.6,5.2,1.4c0.1-0.2,0.2-0.3,0.4-0.5c1.8,0,2.7-1.6,2.4-3.2c33.7-44,66.6-88.6,98.8-133.8
								c-0.4-2.8-0.8-5.6-1-8.4C2901.6,2174.7,2867.3,2221.1,2832.3,2266.9z"/>
							<path class="st40" d="M2913.2,2000.6c-31.3,44.6-60.4,90.8-87.3,138.3c-62.9-11.5-125.9-22-189.1-31.5
								c0.1,1.9,0.3,3.9,0.5,5.8c65.1,9.8,130,20.6,194.7,32.6c3.6,0.7,4.2-5,0.6-5.7c-0.2,0-0.5-0.1-0.7-0.1
								c26.1-46.2,54.5-91,84.8-134.5c-0.8-1.1-1.5-2.3-2.3-3.4C2914,2001.7,2913.6,2001.2,2913.2,2000.6z"/>
							<path class="st40" d="M2807.2,2008.9c-43.9-3.5-87.5-9.1-130.8-16.7c-0.8,1.8-1.5,3.6-2.4,5.4c44,7.7,88.4,13.5,133,17
								c0.9,0.5,2.1,0.5,3-0.3c0.5-0.3,0.9-0.7,1.1-1.2c19.2-24.2,37.5-49.2,54.9-74.6c-0.9-2.1-1.7-4.2-2.5-6.4
								C2845.7,1958.4,2826.9,1984,2807.2,2008.9z"/>
							<path class="st40" d="M2765.4,1891.4c-31.5-6.3-62.9-13.3-94.2-20.7c0.4,2,0.8,4.1,1.2,6.1c30.5,7.2,61.1,14,91.8,20.2
								c1.2,1.4,4,1.7,5.1-0.5c14.5-29.9,29.6-59.6,45.1-89c-1.3-1.6-2.6-3.2-3.9-4.8C2794.9,1832,2779.8,1861.6,2765.4,1891.4z"/>
						</g>
					</g>
					<g class="st25">
						<path class="st41" d="M3037.4,2311.1c-2.9-16.7-7.4-33.1-15.8-49.3c-14.5-27.8-34.9-50.8-55.9-73.7
							c-13.7-14.9-26.2-30.2-29.4-50.8c-7.5-47.9,10.6-92-21.7-135.1c-11.4-15.2-26.4-27.3-37.2-42.9
							c-20.2-29.3-22.6-67.1-34.6-100.7c-13.8-38.7-41-72.4-75.9-93.8c-20.7-12.7-45.8-21.4-66.1-4.9c-6.7,5.4-12.4,11.9-17,19.1
							c3.3,4.7,6.5,9.1,9.4,13.1c27.9,39.3,57.7,78,76.3,122.8c16.1,38.7,23.3,81.2,20.8,123.1c-1.7,29-8,58-3.8,86.7
							c7.9,55.1,51.3,96.9,87.5,139.1c48.1,56,87.5,121.3,103.3,193.5c10.7,49.1,9.5,101.7-5.9,149.2c2.8,2.5,5.5,5,8.2,7.5
							c-2.4-24.5,6.3-48.7,17.4-70.7c11.1-21.9,24.8-42.6,33.5-65.6c12.9-33.8,19.3-76.4,14.2-112.2
							C3041.9,2346.9,3040.5,2328.8,3037.4,2311.1z"/>
					</g>
				</g>
				<g>
					<path class="st39" d="M3427.2,1932.7c-11.4-22.8-33.7-39.1-58.1-46.2c-11.8-3.4-24.7-4.8-36.4-1.1
						c-13.3,4.3-23.8,14.5-33.5,24.6c-9.7,10.1-19.2,20.3-28.7,30.6c1.7-0.2,3.5-0.2,5.2,0c15.9,1.6,27.4,17.7,25.5,35.9
						c-1.8,18.2-16.3,31.7-32.2,30c-15.9-1.6-27.4-17.7-25.5-35.9c0-0.2,0.1-0.3,0.1-0.5c-20.9,23.2-41.2,47.6-50.8,77.2
						c-9.6,29.7-7.5,61.7-7.8,92.9c-0.8,69.7-17.2,143.5-66.9,192.3c-13.9,13.7-30.3,25.1-41.6,41c-9.3,13-14.6,28.2-17.6,43.8
						c-2.6,13.4-8.2,25.5-10.1,39c-4.3,30.6,0.4,62.5,13.5,90.4c9.6,20.6,18.4,41.7,28.1,62c2.5,5.2,4.2,11.4,1.6,16.4
						c3.5-6.8,27.3-6.7,33.7-8.3c8.1-2,16.6-4.9,24.5-7.5c18.9-6.3,38.8-6.7,58.4-11.1c26.1-5.9,54.5-22.5,74.6-39.8
						c6.8-5.9,12.7-13.8,17.8-22.7c1.2-2.2,2.4-4.4,3.5-6.7c-1.4-0.1-2.9-0.1-4.3-0.3c-20.6-2.1-36.4-12.9-35.3-24
						c1.1-11.2,18.7-18.5,39.4-16.4c5.2,0.5,10,1.6,14.4,3.1c3.4-11.8,6.1-23.2,8.3-33c3.8-17.2,6.3-35.1,15.3-50.2
						c9.1-15.2,23.8-25.9,37-37.6c27.8-24.5,51.3-64.5,47.5-102.8c-2.8-28.9-18.8-54.9-24-83.5
						C3387.4,2101.6,3467.6,2013.3,3427.2,1932.7z"/>
					<g>
						<g>
							<path class="st42" d="M3342,1992.7c-10.1,66.1-17.3,130.6-40,193.9c-24,66.9-53.5,132.5-85.2,196
								c-14.7,29.4-30.8,57.9-44.2,87.9c-14.2,32-36.2,60.3-53.6,90.7c-30.6,53.7-52.2,113-53,175.4c-0.1,6.6,10.2,6.8,10.2,0.2
								c0.8-67.7,27.1-129.2,61-186.7c16.4-27.7,34.8-53.5,47.9-83c14.7-33.1,33.1-64.5,49.1-96.9c28.9-58.7,54.8-119.4,77.5-180.7
								c23.4-63.1,30-127.9,40-193.9C3352.8,1989.1,3343,1986.1,3342,1992.7z"/>
						</g>
						<g>
							<path class="st42" d="M3402.4,2182.9c-37.1,15.3-74.3,30.3-111.6,45.1c-35.6-37.9-70.8-76.2-105.8-114.7c0,2.5,0,5.1,0,7.6
								c34.5,38,69.3,75.8,104.5,113.2c1.8,1.9,4.4,0.2,4.4-1.8c36.6-14.5,73.2-29.2,109.6-44.2c-0.2-1.2-0.6-2.3-0.8-3.5
								C3402.6,2184,3402.5,2183.4,3402.4,2182.9z"/>
							<path class="st42" d="M3325.9,2136.3c28.7-13,57.5-26.1,86.2-39.1c0.6-2.2,1.3-4.3,1.9-6.5c-30.2,13.7-60.4,27.4-90.6,41.1
								C3320.5,2133.2,3322.9,2137.7,3325.9,2136.3z"/>
							<path class="st42" d="M3217.2,2002c-1,1.4-2.1,2.8-3.1,4.3c35.6,39.9,69.8,81,102.7,123.3c2,2.6,5.7-0.9,3.7-3.5
								C3287.5,2083.5,3253,2042.1,3217.2,2002z"/>
							<path class="st42" d="M3391.9,2268.5c-21.4,5.7-42.6,12-63.7,18.6c-21,6.6-42,15.5-64.1,17.5c0.1-0.7-0.1-1.4-0.6-2
								c-27.3-32.1-55.7-63.3-84.9-93.6c-0.4,2.1-0.8,4.1-1.2,6.2c28.3,29.4,55.7,59.6,82.1,90.7c-1.3,1.5-0.8,4.4,1.7,4.3
								c20.6-1.2,39.7-8.7,59.2-15c22.6-7.3,45.3-14,68.2-20.2c12.5-3.4,25.1-6.6,37.7-9.7c-0.2-1.7-0.5-3.4-0.8-5.1
								C3414.3,2262.7,3403.1,2265.6,3391.9,2268.5z"/>
							<path class="st42" d="M3146.8,2296.1c-0.9,1.5-1.9,3.1-2.8,4.6c23.6,29.6,47.3,59.1,70.9,88.7c2.1,2.6,5.8-1,3.7-3.5
								C3194.6,2355.9,3170.7,2326,3146.8,2296.1z"/>
							<path class="st42" d="M3221.7,2393.7c54.2-12.4,109-22,164.1-29.3c1.9-1.9,3.7-3.9,5.6-5.9c-57.4,7.3-114.4,17.3-170.9,30.1
								C3217.3,2389.5,3218.5,2394.5,3221.7,2393.7z"/>
							<path class="st42" d="M3170.3,2488.6c1.2-0.8,2-2.5,0.8-4c-30.1-39-59.7-78.4-88.8-118.2c-1.1,1.3-2.3,2.7-3.3,4
								c29,39.6,58.4,78.8,88.4,117.7c0.8,1.1,1.9,1.1,2.8,0.6c-1.8,1.5-0.5,5.1,2.3,4.5c51.2-11.9,102.5-22.9,154-33.1
								c0.1-0.5,0.2-1,0.3-1.5c0.3-1.3,0.6-2.7,0.8-4c-52.3,10.3-104.5,21.5-156.4,33.5C3170.9,2488.2,3170.6,2488.4,3170.3,2488.6z
								"/>
							<path class="st42" d="M3114.9,2578.5c-22.5-34.3-45-68.6-67.5-102.9c-0.1,3.2,0,6.3,0.1,9.5c21.5,32.7,43,65.5,64.4,98.2
								c1.1,1.7,3.3,1.4,4.4,0.2c50.3-6.9,100.6-13.9,150.9-20.8c4.4-0.6,8.9-1.2,13.3-1.8c0.9-0.7,1.8-1.4,2.7-2.2
								c1.4-1.2,2.7-2.5,4-3.9c-7.1,1-14.2,2-21.2,2.9C3215.6,2564.6,3165.2,2571.6,3114.9,2578.5z"/>
						</g>
					</g>
					<g class="st25">
						<path class="st41" d="M3427.2,1932.7c-11.4-22.8-33.7-39.1-58.1-46.2c-4.5-1.3-9-2.3-13.7-2.8c14.9,59.9,18.3,122.7-4.6,179.1
							c-29.8,73.3-100.8,127.8-115.3,205.6c-10.3,55.4,10.2,114-5,168.3c-9.8,34.9-33.4,64-56.4,92c-25.4,30.9-50.8,61.8-76.3,92.7
							c8.5-2.9,23-3.1,27.8-4.3c8.1-2,16.6-4.9,24.5-7.5c18.9-6.3,38.8-6.7,58.4-11.1c26.1-5.9,54.5-22.5,74.6-39.8
							c6.8-5.9,12.7-13.8,17.8-22.7c1.2-2.2,2.4-4.4,3.5-6.7c-1.4-0.1-2.9-0.1-4.3-0.3c-20.6-2.1-36.4-12.9-35.3-24
							c1.1-11.2,18.7-18.5,39.4-16.4c5.2,0.5,10,1.6,14.4,3.1c3.4-11.8,6.1-23.2,8.3-33c3.8-17.2,6.3-35.1,15.3-50.2
							c9.1-15.2,23.8-25.9,37-37.6c27.8-24.5,51.3-64.5,47.5-102.8c-2.8-28.9-18.8-54.9-24-83.5
							C3387.4,2101.6,3467.6,2013.3,3427.2,1932.7z"/>
					</g>
				</g>
				<g class="st25">
					<path class="st43" d="M2617.1,2322.4c-3.4-31.6-5.4-64.6-21-92.4c-13-23.2-34.3-40.6-49.5-62.4
						c-29.7-42.6-33.3-97.5-35.2-149.7c-13.8,3.5-26.7,10.9-36.5,21.2c-49.3,52-20.4,137.5,10.9,190.4c8.7,14.7,18.7,28.9,23.7,45.2
						c4.1,13.5,4.6,27.6,4.9,41.8c0.1,3.2,0.1,6.4,0.2,9.7c3.6-0.9,7.6-1.3,11.7-1.3c17.6,0,31.8,8.5,31.8,18.9
						c0,10.5-14.2,18.9-31.8,18.9c-2.7,0-5.3-0.2-7.7-0.6c10.7,53.5,41.4,101.4,75,143.8c19.3,24.4,36.2,47.7,61.7,66.1
						c25.8,18.6,54.8,32.8,84.5,44c10.7,4,111.6,30.1,109.3,39c2.5-9.7,5.6-19.8,8.8-30c-35.4-23.4-73-44-107.8-68.3
						C2668.4,2499.6,2627.5,2420.5,2617.1,2322.4z"/>
				</g>
				<g>
					<path class="st11" d="M3107.3,2592.9H2877h-155.3c-1.4,31.3-5.6,186.7,40.3,326.1c40,121.5,77.8,169.1,105.3,191.2
						c7.6,6.1,17,9.5,26.7,9.8l0,0h1.1h194h1.1l0,0c9.7-0.2,19.1-3.7,26.7-9.8c27.5-22.1,65.3-69.7,105.3-191.2
						c45.9-139.4,41.7-294.8,40.3-326.1H3107.3z"/>
					<g class="st25">
						<path class="st5" d="M2733.6,2798.1c4.1,26.3,9.5,53.4,16.6,80.5c168.4-71.3,339.6-135.9,511.9-197.5
							c1.8-40.9,1-72.1,0.5-85.9C3084.6,2658.5,2907.7,2724.9,2733.6,2798.1z"/>
						<path class="st5" d="M2783.6,2978.2c153.8-64.2,309.9-123,466.9-179.3c2.1-13.4,3.9-26.6,5.4-39.5
							c-163,58.3-325.1,119.2-484.8,185.8C2775.3,2957,2779.5,2968,2783.6,2978.2z"/>
						<path class="st5" d="M2858.7,3102.6c114.5-48.3,230.3-93.6,346.9-136.9c5.5-14.2,11-29.8,16.6-46.8
							c5.5-16.8,10.3-33.8,14.5-50.7c-143.4,52.6-285.9,107.7-426.5,167.3C2828,3068.7,2844.4,3089.2,2858.7,3102.6z"/>
					</g>
					<g class="st44">
						<path class="st20" d="M3147.1,2592.9c4,98.2-3.1,196.8-26.1,292.2c-19.9,82.7-52.2,162.9-97.1,234.9h65.2h1.1l0,0
							c9.7-0.2,19.1-3.7,26.7-9.8c27.5-22.1,65.3-69.7,105.3-191.2c45.9-139.4,41.7-294.8,40.3-326.1H3147.1z"/>
					</g>
					<path class="st20" d="M3278,2575.6h-576.9c-2.2,0-4,1.8-4,4v67.1c0,2.2,1.8,4,4,4H3278c2.2,0,4-1.8,4-4v-67.1
						C3282,2577.4,3280.2,2575.6,3278,2575.6z"/>
				</g>
			</g>
		</g>
		<polygon class="st13" points="1209.4,898.1 1217.5,970.1 1194.2,972.6 1194.6,975.7 1220.9,972.8 1212.5,897.8 		"/>
	</g>
	<g>
		<path class="st5" d="M2996.2,679.6c1.3-6.8,2.4-13.6,4-20.3c3.9-16.5,16.4-26.5,33.2-26.6c22.6-0.2,45.1,0,67.7-0.1
			c1.8,0,3.6,0,5.7,0c0-2.5,0-4.4,0-6.9c-17.6,0-35,0-52.4,0c0-10.3-0.6-20.1,0.2-29.7c0.6-8.1,6.5-12.8,13.8-15.4
			c14.3-5,29.3-5.5,44.2-5.1c7.8,0.2,15.5,1.2,23.2,2.4c13.7,2.1,24.3,13.9,24.5,27.9c0.3,17.1,0.3,34.2,0,51.3
			c-0.3,15.2-11.8,26.3-27.3,26.5c-17.1,0.2-34.2,0-51.3,0.1c-20.2,0-34.7,14.5-34.9,34.8c-0.1,7.4,0,14.9,0,22.4
			c-8.2,0-16,0.7-23.6-0.2c-10.2-1.2-16.7-8.2-20-17.3c-2.8-7.9-4.2-16.3-6.2-24.5c-0.3-1.4-0.6-2.8-0.9-4.3
			C2996.2,689.6,2996.2,684.6,2996.2,679.6z M3077,612.1c5.6,0,10.2-4.4,10.3-10c0.1-5.5-4.4-10.2-9.9-10.4
			c-5.8-0.1-10.5,4.4-10.5,10.2C3067,607.6,3071.4,612,3077,612.1z"/>
		<path class="st5" d="M3099.7,800.1c-7.1-1.6-14.2-2.9-21.1-5c-4.5-1.4-9-3.5-13-6.1c-7.9-5-12.1-12.3-12-22
			c0.2-16.1,0-32.2,0.1-48.3c0.1-17,11.4-28.2,28.5-28.3c16.4-0.1,32.8,0,49.3,0c20.5,0,35.5-14.8,35.8-35.3c0.1-7.3,0-14.5,0-22
			c8.8,0,17.2-0.6,25.5,0.2c7,0.7,12.3,5.3,15.3,11.6c13.5,28.4,13.8,56.9-1,85c-4.2,8-11.5,11.5-20.6,11.4c-24.6-0.1-49.1,0-73.7,0
			c-1.8,0-3.6,0-5.6,0c0,2.4,0,4.3,0,6.7c17.6,0,35.1,0,53.7,0c-0.5,9.4-0.3,18.3-1.6,27c-1,7.1-6.2,12.5-12.6,15.1
			c-9.1,3.7-18.8,6.1-28.2,9c-1.6,0.5-3.2,0.7-4.8,1C3109,800.1,3104.4,800.1,3099.7,800.1z M3137.2,782.2c5.6,0,10.1-4.4,10.2-10
			c0.1-5.6-4.3-10.2-9.9-10.3c-5.8-0.2-10.5,4.4-10.5,10.2C3127.1,777.7,3131.6,782.1,3137.2,782.2z"/>
	</g>
</g>
</svg>
